<?xml version="1.0" encoding="UTF-8"?>
<svg version="1.1" xmlns="http://www.w3.org/2000/svg" width="250" height="250">
<path d="M0 0 C0.33 0 0.66 0 1 0 C1.12117188 1.05058594 1.24234375 2.10117187 1.3671875 3.18359375 C2.14399682 9.75045158 2.9195169 16.21799017 4.49609375 22.6484375 C5.42422611 26.97972186 5.94522682 31.37772015 6.53515625 35.765625 C6.93367758 38.53852969 7.41815634 41.26070066 8 44 C9.485 44.495 9.485 44.495 11 45 C11.05607422 45.93972656 11.05607422 45.93972656 11.11328125 46.8984375 C11.17902344 47.71570313 11.24476563 48.53296875 11.3125 49.375 C11.37050781 50.18710938 11.42851562 50.99921875 11.48828125 51.8359375 C11.82990528 54.37921338 11.82990528 54.37921338 15 56 C15.44140625 58.75 15.44140625 58.75 15.5625 62 C15.51529863 66.52554698 15.51529863 66.52554698 18 70 C17.80819719 72.01392955 17.61014 74.029943 17.2890625 76.02734375 C16.92750684 78.16242973 16.92750684 78.16242973 17 81 C17.33 81.33 17.66 81.66 18 82 C17.40366972 89.39449541 17.40366972 89.39449541 15 93 C15.66 93.33 16.32 93.66 17 94 C16.54177532 97.46941546 16.10868317 100.67395049 15 104 C14.855625 105.134375 14.71125 106.26875 14.5625 107.4375 C14.07268571 110.5396572 13.40422223 112.29185714 12 115 C12.33 115.66 12.66 116.32 13 117 C12.44140625 119.0234375 12.44140625 119.0234375 11.5625 121.375 C10.34339167 124.64417838 10 126.38356977 10 130 C9.03268074 133.33029104 7.9670371 136.60568765 6.86523438 139.89257812 C5.43518787 144.27390901 4.52112482 148.41769557 4 153 C4.55429688 151.85660156 5.10859375 150.71320313 5.6796875 149.53515625 C6.41114152 148.04411537 7.14292967 146.55323838 7.875 145.0625 C8.23980469 144.30775391 8.60460937 143.55300781 8.98046875 142.77539062 C9.51220703 141.69741211 9.51220703 141.69741211 10.0546875 140.59765625 C10.37937012 139.93258057 10.70405273 139.26750488 11.03857422 138.58227539 C12 137 12 137 14 136 C15.12224855 134.11986894 15.12224855 134.11986894 16.125 131.9375 C16.47820312 131.20402344 16.83140625 130.47054687 17.1953125 129.71484375 C17.46085937 129.14894531 17.72640625 128.58304688 18 128 C18.66 128 19.32 128 20 128 C21.65 125.03 23.3 122.06 25 119 C25.99 119 26.98 119 28 119 C29.32 116.36 30.64 113.72 32 111 C32.99 111 33.98 111 35 111 C36.35278115 109.01310269 37.68568305 107.01254782 39 105 C39.99 104.67 40.98 104.34 42 104 C42.33 104.66 42.66 105.32 43 106 C43.556875 105.030625 44.11375 104.06125 44.6875 103.0625 C47.33035099 99.56250814 47.91437759 99.61284336 52 99 C53.35368596 97.68733482 54.68799596 96.35432675 56 95 C58.125 94.1875 58.125 94.1875 60 94 C60.66 94.33 61.32 94.66 62 95 C62.99 93.515 62.99 93.515 64 92 C65.61645508 90.97265625 65.61645508 90.97265625 67.51953125 90.0625 C68.55883789 89.55589844 68.55883789 89.55589844 69.61914062 89.0390625 C70.34294922 88.69617188 71.06675781 88.35328125 71.8125 88 C73.23658287 87.3143782 74.65978142 86.6269162 76.08203125 85.9375 C76.7570166 85.61136719 77.43200195 85.28523438 78.12744141 84.94921875 C79.75418434 84.12460642 81.32711493 83.19547025 82.88671875 82.25 C85 81 85 81 87 81 C87 80.34 87 79.68 87 79 C93.75 75.125 93.75 75.125 96 74 C95.29763272 79.7945301 92.71334118 84.29518291 88.64453125 88.34375 C85.92999193 91.0703183 83.7113178 93.89969886 81.4375 97 C78.69352349 100.72838403 75.91543207 104.40363935 73 108 C73.99 109.485 73.99 109.485 75 111 C74.04578192 112.14926266 73.08647955 113.29430541 72.125 114.4375 C71.59132812 115.07558594 71.05765625 115.71367187 70.5078125 116.37109375 C69 118 69 118 67 119 C67.33 120.32 67.66 121.64 68 123 C63.375 126 63.375 126 60 126 C59.7834375 127.2065625 59.7834375 127.2065625 59.5625 128.4375 C59 131 59 131 58 132 C56.33382885 132.04063832 54.66611905 132.042721 53 132 C53 133.32 53 134.64 53 136 C50.36 136.66 47.72 137.32 45 138 C45 138.66 45 139.32 45 140 C42.03 140.99 39.06 141.98 36 143 C36.33 143.66 36.66 144.32 37 145 C33.7 145.66 30.4 146.32 27 147 C27 147.66 27 148.32 27 149 C25.94039063 149.40992188 24.88078125 149.81984375 23.7890625 150.2421875 C22.40093404 150.78618379 21.01291907 151.33046971 19.625 151.875 C18.92632812 152.14441406 18.22765625 152.41382813 17.5078125 152.69140625 C13.41102746 154.29154804 13.41102746 154.29154804 10 157 C10.53625 156.690625 11.0725 156.38125 11.625 156.0625 C14.41159098 154.8158672 16.98629703 154.43949835 20 154 C20.721875 153.814375 21.44375 153.62875 22.1875 153.4375 C24.97121643 152.76556845 27.70588971 153.01238403 30.5625 153.0625 C33.86009947 153.24948362 33.86009947 153.24948362 36 152 C36.886875 152.309375 37.77375 152.61875 38.6875 152.9375 C42.29882954 154.09585098 45.2319957 154.15072017 49 154 C49 154.66 49 155.32 49 156 C49.66 155.67 50.32 155.34 51 155 C53.3329866 154.95977609 55.66706666 154.95679753 58 155 C58 155.66 58 156.32 58 157 C58.57741943 156.82041748 59.15483887 156.64083496 59.74975586 156.45581055 C62.18496496 155.96253341 63.60510919 156.13572479 66.00390625 156.70703125 C66.74447266 156.88169922 67.48503906 157.05636719 68.24804688 157.23632812 C69.01181641 157.42646484 69.77558594 157.61660156 70.5625 157.8125 C71.71395508 158.08030273 71.71395508 158.08030273 72.88867188 158.35351562 C76.49859676 159.22531091 78.85142086 159.90094724 82 162 C81.67 162.66 81.34 163.32 81 164 C79.72125 163.938125 78.4425 163.87625 77.125 163.8125 C72.47775226 163.7905445 68.68851937 164.87661135 64.30859375 166.33203125 C61.48066242 167.15026519 58.92591355 167.23099317 56 167 C56 167.99 56 168.98 56 170 C53.94921875 170.22786458 51.8984375 170.45572917 49.84765625 170.68359375 C47.98859771 170.81886614 47.98859771 170.81886614 47 172 C44.66666667 172 42.33333333 172 40 172 C39.67 172.33 39.34 172.66 39 173 C36.89360273 172.9618087 34.78841698 172.84407557 32.6875 172.6875 C31.53636719 172.60886719 30.38523437 172.53023437 29.19921875 172.44921875 C26.25067442 172.03519848 24.56492061 171.38720872 22 170 C21.01 170 20.02 170 19 170 C17.0723973 169.0626997 15.17887735 168.05395427 13.3125 167 C12.31863281 166.443125 11.32476562 165.88625 10.30078125 165.3125 C9.54152344 164.879375 8.78226562 164.44625 8 164 C8 164.66 8 165.32 8 166 C8.66 166 9.32 166 10 166 C10.64836042 167.74906531 11.29358784 169.49929219 11.9375 171.25 C12.29714844 172.22453125 12.65679687 173.1990625 13.02734375 174.203125 C13.81379655 176.46457161 14.47251601 178.66796552 15 181 C11.24307581 180.49230754 9.44329853 179.901417 7 177 C6.05078125 175.0625 6.05078125 175.0625 5.3125 173 C5.06113281 172.319375 4.80976563 171.63875 4.55078125 170.9375 C4 169 4 169 4 166 C3.34 166 2.68 166 2 166 C2.16371094 166.63292969 2.32742187 167.26585937 2.49609375 167.91796875 C3.17453601 172.06751093 3.10555375 176.11641498 3.0625 180.3125 C3.05798828 181.14845703 3.05347656 181.98441406 3.04882812 182.84570312 C3.03710548 184.89716649 3.01917203 186.94859273 3 189 C1.35 189 -0.3 189 -2 189 C-3.17426264 186.65147472 -3.11508173 185.26225935 -3.09765625 182.6484375 C-3.09282227 181.37226563 -3.09282227 181.37226563 -3.08789062 180.0703125 C-3.07532227 178.73613281 -3.07532227 178.73613281 -3.0625 177.375 C-3.05798828 176.4778125 -3.05347656 175.580625 -3.04882812 174.65625 C-3.03702591 172.43743352 -3.02056155 170.21874982 -3 168 C-3.36351563 169.03060547 -3.36351563 169.03060547 -3.734375 170.08203125 C-4.06953125 170.98308594 -4.4046875 171.88414062 -4.75 172.8125 C-5.07484375 173.70582031 -5.3996875 174.59914062 -5.734375 175.51953125 C-7.14652317 178.28716733 -8.27876592 179.51993948 -11 181 C-11.99 180.67 -12.98 180.34 -14 180 C-13.35631658 177.87434778 -12.70998756 175.74949654 -12.0625 173.625 C-11.70285156 172.44164062 -11.34320313 171.25828125 -10.97265625 170.0390625 C-10 167 -10 167 -9 165 C-9.97839844 165.50660156 -9.97839844 165.50660156 -10.9765625 166.0234375 C-11.85054688 166.46945313 -12.72453125 166.91546875 -13.625 167.375 C-14.48351562 167.81585938 -15.34203125 168.25671875 -16.2265625 168.7109375 C-21.40600329 171.11828322 -26.0508517 172.28698382 -31.75 172.6875 C-32.87921875 172.77386719 -34.0084375 172.86023438 -35.171875 172.94921875 C-38 173 -38 173 -40 172 C-41.010625 172 -42.02125 172 -43.0625 172 C-44.031875 172 -45.00125 172 -46 172 C-46.33 171.67 -46.66 171.34 -47 171 C-48.34747084 170.76924918 -49.70377565 170.58846937 -51.0625 170.4375 C-52.361875 170.293125 -53.66125 170.14875 -55 170 C-55 169.01 -55 168.02 -55 167 C-55.969375 167.061875 -56.93875 167.12375 -57.9375 167.1875 C-61.0323709 167.1999292 -63.41238321 166.62553213 -66.3125 165.5625 C-71.15790531 163.79142082 -75.87452618 163.31031052 -81 163 C-81 162.34 -81 161.68 -81 161 C-77.6731435 159.97740066 -74.3392684 158.98129713 -71 158 C-69.87658203 157.66355469 -69.87658203 157.66355469 -68.73046875 157.3203125 C-64.80878853 156.22554135 -61.92269858 155.77415669 -58 157 C-57.67 156.01 -57.34 155.02 -57 154 C-54.94921875 154.29296875 -52.8984375 154.5859375 -50.84765625 154.87890625 C-50.23792969 154.91886719 -49.62820312 154.95882812 -49 155 C-48.67 154.67 -48.34 154.34 -48 154 C-41.47457627 153.76271186 -41.47457627 153.76271186 -39 155 C-38.67 154.01 -38.34 153.02 -38 152 C-21 153.46875 -21 153.46875 -14 155 C-14 154.34 -14 153.68 -14 153 C-14.60328125 152.80664062 -15.2065625 152.61328125 -15.828125 152.4140625 C-16.62734375 152.15367187 -17.4265625 151.89328125 -18.25 151.625 C-19.03890625 151.36976563 -19.8278125 151.11453125 -20.640625 150.8515625 C-22.86627958 150.04826333 -24.90931672 149.10288338 -27 148 C-27 147.34 -27 146.68 -27 146 C-27.99 146.33 -28.98 146.66 -30 147 C-32.6875 146.5625 -32.6875 146.5625 -35 146 C-35.33 144.68 -35.66 143.36 -36 142 C-37.11375 141.896875 -38.2275 141.79375 -39.375 141.6875 C-41.169375 141.3471875 -41.169375 141.3471875 -43 141 C-43.66 140.01 -44.32 139.02 -45 138 C-46.155 137.67 -47.31 137.34 -48.5 137 C-52 136 -52 136 -54 133 C-55.2684375 132.2575 -55.2684375 132.2575 -56.5625 131.5 C-59 130 -59 130 -60 127 C-60.969375 126.525625 -61.93875 126.05125 -62.9375 125.5625 C-66.10211637 123.94789981 -66.87470028 123.26336918 -68 120 C-67.01 119.505 -67.01 119.505 -66 119 C-66.763125 118.5875 -67.52625 118.175 -68.3125 117.75 C-70.98936585 116.00692456 -72.47696907 114.79222337 -74 112 C-73.77054688 111.42894531 -73.54109375 110.85789062 -73.3046875 110.26953125 C-72.89392261 107.20985943 -74.15165884 105.79699384 -75.91015625 103.38012695 C-76.35230469 102.80093506 -76.79445313 102.22174316 -77.25 101.625 C-77.69730469 101.01938232 -78.14460938 100.41376465 -78.60546875 99.78979492 C-82.86985151 94.05842314 -87.29520689 88.44729741 -91.75 82.86328125 C-94 80 -94 80 -96 77 C-95.67 76.01 -95.34 75.02 -95 74 C-94.29423828 74.52400391 -94.29423828 74.52400391 -93.57421875 75.05859375 C-92.95160156 75.51363281 -92.32898438 75.96867187 -91.6875 76.4375 C-91.07261719 76.88996094 -90.45773438 77.34242187 -89.82421875 77.80859375 C-87.90322899 79.17336308 -87.90322899 79.17336308 -85 80 C-85 80.66 -85 81.32 -85 82 C-84.01 82.37125 -84.01 82.37125 -83 82.75 C-66.28571429 89.71428571 -66.28571429 89.71428571 -61 95 C-60.13375 94.690625 -60.13375 94.690625 -59.25 94.375 C-57 94 -57 94 -54.0625 95.75 C-53.051875 96.4925 -52.04125 97.235 -51 98 C-50.113125 98.474375 -49.22625 98.94875 -48.3125 99.4375 C-45.59877872 101.27109546 -44.48211734 103.1137715 -43 106 C-42.01 105.34 -41.02 104.68 -40 104 C-36 108 -36 108 -34.375 109.75 C-33.06306307 111.22422426 -33.06306307 111.22422426 -31 111 C-30.63648437 111.83144531 -30.63648437 111.83144531 -30.265625 112.6796875 C-29.76289063 113.76636719 -29.76289063 113.76636719 -29.25 114.875 C-28.92515625 115.59429687 -28.6003125 116.31359375 -28.265625 117.0546875 C-26.76277382 119.36462542 -25.4272527 119.80579167 -23 121 C-22 123.33333333 -21 125.66666667 -20 128 C-18.68352881 128.69937532 -17.34977849 129.36729133 -16 130 C-14.94991347 131.97416268 -13.95012124 133.97582866 -13 136 C-12.55140625 136.40992188 -12.1028125 136.81984375 -11.640625 137.2421875 C-9.20144775 139.85559169 -7.84597942 142.99568584 -6.3125 146.1875 C-5.99216797 146.84169922 -5.67183594 147.49589844 -5.34179688 148.16992188 C-4.55571708 149.77727907 -3.77711317 151.38828858 -3 153 C-4.39065355 146.27850784 -6.17671286 139.72591702 -8.09765625 133.13671875 C-8.78044431 130.76321741 -9.40250405 128.39488131 -10 126 C-10.51246442 124.247531 -11.03362512 122.49758654 -11.5625 120.75 C-11.83191406 119.85796875 -12.10132812 118.9659375 -12.37890625 118.046875 C-12.58386719 117.37140625 -12.78882812 116.6959375 -13 116 C-12.34 116 -11.68 116 -11 116 C-11.60183749 113.97954558 -12.27306096 111.97888961 -13 110 C-13.66 109.67 -14.32 109.34 -15 109 C-14.79375 108.113125 -14.5875 107.22625 -14.375 106.3125 C-13.96411152 102.68298505 -14.57408913 101.27120728 -16 98 C-16.125 95.375 -16.125 95.375 -16 93 C-15.7763932 90.0745356 -15.7763932 90.0745356 -17 88 C-17.04022391 85.6670134 -17.04320247 83.33293334 -17 81 C-16.34 81 -15.68 81 -15 81 C-15.33 80.319375 -15.66 79.63875 -16 78.9375 C-17.19773293 75.41915953 -17.34841176 72.69316465 -17 69 C-16.01 68.34 -15.02 67.68 -14 67 C-14.66 66.67 -15.32 66.34 -16 66 C-15.34 62.37 -14.68 58.74 -14 55 C-13.01 55 -12.02 55 -11 55 C-10.92652344 53.93458984 -10.92652344 53.93458984 -10.8515625 52.84765625 C-10.77679688 51.92855469 -10.70203125 51.00945312 -10.625 50.0625 C-10.52058594 48.68771484 -10.52058594 48.68771484 -10.4140625 47.28515625 C-10.20910156 46.15400391 -10.20910156 46.15400391 -10 45 C-9.34 44.67 -8.68 44.34 -8 44 C-7.21185083 41.57397832 -6.57177964 39.2292831 -6 36.75 C-5.82484863 36.00580811 -5.64969727 35.26161621 -5.46923828 34.49487305 C-3.90982729 27.42956406 -3.19873714 20.3431682 -2.68359375 13.13378906 C-2.33223828 8.44964707 -1.7496483 4.41750046 0 0 Z " fill="#131313" transform="translate(125,26)"/>
<path d="M0 0 C1 3 1 3 0.1796875 5.0859375 C-0.46613281 6.21902344 -0.46613281 6.21902344 -1.125 7.375 C-1.54007813 8.12523438 -1.95515625 8.87546875 -2.3828125 9.6484375 C-4.30614404 12.44516597 -6.59225527 14.61030433 -9 17 C-10.55578444 18.97293406 -12.07655407 20.97394503 -13.5625 23 C-16.30647651 26.72838403 -19.08456793 30.40363935 -22 34 C-21.34 34.99 -20.68 35.98 -20 37 C-20.95421808 38.14926266 -21.91352045 39.29430541 -22.875 40.4375 C-23.40867188 41.07558594 -23.94234375 41.71367187 -24.4921875 42.37109375 C-26 44 -26 44 -28 45 C-27.67 46.32 -27.34 47.64 -27 49 C-31.625 52 -31.625 52 -35 52 C-35.144375 52.804375 -35.28875 53.60875 -35.4375 54.4375 C-36 57 -36 57 -37 58 C-38.66617115 58.04063832 -40.33388095 58.042721 -42 58 C-42 59.32 -42 60.64 -42 62 C-44.64 62.66 -47.28 63.32 -50 64 C-50 64.66 -50 65.32 -50 66 C-52.97 66.99 -55.94 67.98 -59 69 C-58.67 69.66 -58.34 70.32 -58 71 C-62.95 71.99 -62.95 71.99 -68 73 C-68 73.66 -68 74.32 -68 75 C-69.05960937 75.40992188 -70.11921875 75.81984375 -71.2109375 76.2421875 C-72.59906596 76.78618379 -73.98708093 77.33046971 -75.375 77.875 C-76.07367188 78.14441406 -76.77234375 78.41382813 -77.4921875 78.69140625 C-81.58897254 80.29154804 -81.58897254 80.29154804 -85 83 C-84.46375 82.690625 -83.9275 82.38125 -83.375 82.0625 C-80.58840902 80.8158672 -78.01370297 80.43949835 -75 80 C-74.278125 79.814375 -73.55625 79.62875 -72.8125 79.4375 C-70.02878357 78.76556845 -67.29411029 79.01238403 -64.4375 79.0625 C-61.13990053 79.24948362 -61.13990053 79.24948362 -59 78 C-57.6696875 78.4640625 -57.6696875 78.4640625 -56.3125 78.9375 C-52.70117046 80.09585098 -49.7680043 80.15072017 -46 80 C-46 80.66 -46 81.32 -46 82 C-45.34 81.67 -44.68 81.34 -44 81 C-41.6670134 80.95977609 -39.33293334 80.95679753 -37 81 C-37 81.66 -37 82.32 -37 83 C-36.42258057 82.82041748 -35.84516113 82.64083496 -35.25024414 82.45581055 C-32.81503504 81.96253341 -31.39489081 82.13572479 -28.99609375 82.70703125 C-27.88524414 82.9690332 -27.88524414 82.9690332 -26.75195312 83.23632812 C-25.98818359 83.42646484 -25.22441406 83.61660156 -24.4375 83.8125 C-23.66986328 83.99103516 -22.90222656 84.16957031 -22.11132812 84.35351562 C-18.50140324 85.22531091 -16.14857914 85.90094724 -13 88 C-13.33 88.66 -13.66 89.32 -14 90 C-15.27875 89.938125 -16.5575 89.87625 -17.875 89.8125 C-22.52224774 89.7905445 -26.31148063 90.87661135 -30.69140625 92.33203125 C-33.51933758 93.15026519 -36.07408645 93.23099317 -39 93 C-39 93.99 -39 94.98 -39 96 C-41.05078125 96.22786458 -43.1015625 96.45572917 -45.15234375 96.68359375 C-47.01140229 96.81886614 -47.01140229 96.81886614 -48 98 C-50.33333333 98 -52.66666667 98 -55 98 C-55.33 98.33 -55.66 98.66 -56 99 C-58.10639727 98.9618087 -60.21158302 98.84407557 -62.3125 98.6875 C-63.46363281 98.60886719 -64.61476563 98.53023438 -65.80078125 98.44921875 C-68.74932558 98.03519848 -70.43507939 97.38720872 -73 96 C-73.99 96 -74.98 96 -76 96 C-77.9276027 95.0626997 -79.82112265 94.05395427 -81.6875 93 C-82.68136719 92.443125 -83.67523438 91.88625 -84.69921875 91.3125 C-85.45847656 90.879375 -86.21773438 90.44625 -87 90 C-87 90.66 -87 91.32 -87 92 C-86.34 92 -85.68 92 -85 92 C-84.35163958 93.74906531 -83.70641216 95.49929219 -83.0625 97.25 C-82.52302734 98.71179688 -82.52302734 98.71179688 -81.97265625 100.203125 C-81.18620345 102.46457161 -80.52748399 104.66796552 -80 107 C-83.75692419 106.49230754 -85.55670147 105.901417 -88 103 C-88.94921875 101.0625 -88.94921875 101.0625 -89.6875 99 C-89.93886719 98.319375 -90.19023437 97.63875 -90.44921875 96.9375 C-91 95 -91 95 -91 92 C-91.66 92 -92.32 92 -93 92 C-92.83628906 92.63292969 -92.67257813 93.26585937 -92.50390625 93.91796875 C-91.82546399 98.06751093 -91.89444625 102.11641498 -91.9375 106.3125 C-91.94201172 107.14845703 -91.94652344 107.98441406 -91.95117188 108.84570312 C-91.96289452 110.89716649 -91.98082797 112.94859273 -92 115 C-93.65 115 -95.3 115 -97 115 C-98.17426264 112.65147472 -98.11508173 111.26225935 -98.09765625 108.6484375 C-98.09282227 107.37226563 -98.09282227 107.37226563 -98.08789062 106.0703125 C-98.07532227 104.73613281 -98.07532227 104.73613281 -98.0625 103.375 C-98.05798828 102.4778125 -98.05347656 101.580625 -98.04882812 100.65625 C-98.03702591 98.43743352 -98.02056155 96.21874982 -98 94 C-98.36351563 95.03060547 -98.36351563 95.03060547 -98.734375 96.08203125 C-99.23710937 97.43361328 -99.23710937 97.43361328 -99.75 98.8125 C-100.07484375 99.70582031 -100.3996875 100.59914063 -100.734375 101.51953125 C-102.14652317 104.28716733 -103.27876592 105.51993948 -106 107 C-107.485 106.505 -107.485 106.505 -109 106 C-108.35631658 103.87434778 -107.70998756 101.74949654 -107.0625 99.625 C-106.52302734 97.84996094 -106.52302734 97.84996094 -105.97265625 96.0390625 C-105 93 -105 93 -104 91 C-104.97839844 91.50660156 -104.97839844 91.50660156 -105.9765625 92.0234375 C-106.85054688 92.46945313 -107.72453125 92.91546875 -108.625 93.375 C-109.48351562 93.81585938 -110.34203125 94.25671875 -111.2265625 94.7109375 C-116.40600329 97.11828322 -121.0508517 98.28698382 -126.75 98.6875 C-127.87921875 98.77386719 -129.0084375 98.86023438 -130.171875 98.94921875 C-133 99 -133 99 -135 98 C-136.010625 98 -137.02125 98 -138.0625 98 C-139.031875 98 -140.00125 98 -141 98 C-141.33 97.67 -141.66 97.34 -142 97 C-143.34747084 96.76924918 -144.70377565 96.58846937 -146.0625 96.4375 C-147.361875 96.293125 -148.66125 96.14875 -150 96 C-150 95.01 -150 94.02 -150 93 C-150.969375 93.061875 -151.93875 93.12375 -152.9375 93.1875 C-156.0323709 93.1999292 -158.41238321 92.62553213 -161.3125 91.5625 C-166.15790531 89.79142082 -170.87452618 89.31031052 -176 89 C-176 88.34 -176 87.68 -176 87 C-172.6731435 85.97740066 -169.3392684 84.98129713 -166 84 C-165.25105469 83.77570313 -164.50210938 83.55140625 -163.73046875 83.3203125 C-159.80878853 82.22554135 -156.92269858 81.77415669 -153 83 C-152.505 81.515 -152.505 81.515 -152 80 C-149.94921875 80.29296875 -147.8984375 80.5859375 -145.84765625 80.87890625 C-145.23792969 80.91886719 -144.62820312 80.95882812 -144 81 C-143.67 80.67 -143.34 80.34 -143 80 C-136.47457627 79.76271186 -136.47457627 79.76271186 -134 81 C-133.505 79.515 -133.505 79.515 -133 78 C-116 79.46875 -116 79.46875 -109 81 C-108.67 80.34 -108.34 79.68 -108 79 C-106.18387512 79.95144598 -104.37218919 80.91136933 -102.5625 81.875 C-101.55316406 82.40867187 -100.54382813 82.94234375 -99.50390625 83.4921875 C-97 85 -97 85 -96 87 C-95.77049681 89.204364 -95.58924067 91.41392173 -95.4375 93.625 C-95.35371094 94.81351562 -95.26992187 96.00203125 -95.18359375 97.2265625 C-95.12300781 98.14179688 -95.06242187 99.05703125 -95 100 C-94.83240016 97.8750734 -94.66594799 95.75005624 -94.5 93.625 C-94.4071875 92.44164062 -94.314375 91.25828125 -94.21875 90.0390625 C-94.09804546 88.36213157 -94 86.68126944 -94 85 C-93.84405035 83.45721239 -93.67607097 81.91562095 -93.5 80.375 C-93.4071875 79.55773437 -93.314375 78.74046875 -93.21875 77.8984375 C-93.1465625 77.27195312 -93.074375 76.64546875 -93 76 C-92.01 77.485 -92.01 77.485 -91 79 C-90.44570312 77.85660156 -89.89140625 76.71320313 -89.3203125 75.53515625 C-88.58885848 74.04411537 -87.85707033 72.55323838 -87.125 71.0625 C-86.76019531 70.30775391 -86.39539063 69.55300781 -86.01953125 68.77539062 C-85.66503906 68.05673828 -85.31054688 67.33808594 -84.9453125 66.59765625 C-84.62062988 65.93258057 -84.29594727 65.26750488 -83.96142578 64.58227539 C-83 63 -83 63 -81 62 C-79.87775145 60.11986894 -79.87775145 60.11986894 -78.875 57.9375 C-78.52179688 57.20402344 -78.16859375 56.47054687 -77.8046875 55.71484375 C-77.53914063 55.14894531 -77.27359375 54.58304688 -77 54 C-76.34 54 -75.68 54 -75 54 C-73.35 51.03 -71.7 48.06 -70 45 C-69.01 45 -68.02 45 -67 45 C-65.68 42.36 -64.36 39.72 -63 37 C-62.01 37 -61.02 37 -60 37 C-58.64721885 35.01310269 -57.31431695 33.01254782 -56 31 C-55.01 30.67 -54.02 30.34 -53 30 C-52.505 30.99 -52.505 30.99 -52 32 C-51.443125 31.030625 -50.88625 30.06125 -50.3125 29.0625 C-47.66964901 25.56250814 -47.08562241 25.61284336 -43 25 C-41.64631404 23.68733482 -40.31200404 22.35432675 -39 21 C-36.875 20.1875 -36.875 20.1875 -35 20 C-34.34 20.33 -33.68 20.66 -33 21 C-32.01 19.515 -32.01 19.515 -31 18 C-29.38354492 16.97265625 -29.38354492 16.97265625 -27.48046875 16.0625 C-26.78759766 15.72476563 -26.09472656 15.38703125 -25.38085938 15.0390625 C-24.65705078 14.69617188 -23.93324219 14.35328125 -23.1875 14 C-21.76341713 13.3143782 -20.34021858 12.6269162 -18.91796875 11.9375 C-17.90549072 11.44830078 -17.90549072 11.44830078 -16.87255859 10.94921875 C-15.24581566 10.12460642 -13.67288507 9.19547025 -12.11328125 8.25 C-10 7 -10 7 -8 7 C-8 6.34 -8 5.68 -8 5 C-6.20963542 3.99088542 -4.41927083 2.98177083 -2.62890625 1.97265625 C-1.02121854 1.1027487 -1.02121854 1.1027487 0 0 Z " fill="#1B1B1B" transform="translate(220,100)"/>
<path d="M0 0 C1 3 1 3 0.1796875 5.0859375 C-0.25085938 5.84132813 -0.68140625 6.59671875 -1.125 7.375 C-1.54007812 8.12523438 -1.95515625 8.87546875 -2.3828125 9.6484375 C-4.30614404 12.44516597 -6.59225527 14.61030433 -9 17 C-10.55578444 18.97293406 -12.07655407 20.97394503 -13.5625 23 C-16.30647651 26.72838403 -19.08456793 30.40363935 -22 34 C-21.34 34.99 -20.68 35.98 -20 37 C-20.95421808 38.14926266 -21.91352045 39.29430541 -22.875 40.4375 C-23.40867187 41.07558594 -23.94234375 41.71367187 -24.4921875 42.37109375 C-26 44 -26 44 -28 45 C-27.505 46.98 -27.505 46.98 -27 49 C-31.625 52 -31.625 52 -35 52 C-35.144375 52.804375 -35.28875 53.60875 -35.4375 54.4375 C-36 57 -36 57 -37 58 C-38.66617115 58.04063832 -40.33388095 58.042721 -42 58 C-42 59.32 -42 60.64 -42 62 C-44.64 62.66 -47.28 63.32 -50 64 C-50 64.66 -50 65.32 -50 66 C-52.97 66.99 -55.94 67.98 -59 69 C-58.67 69.66 -58.34 70.32 -58 71 C-62.95 71.99 -62.95 71.99 -68 73 C-68 73.66 -68 74.32 -68 75 C-69.00160156 75.39832031 -70.00320312 75.79664063 -71.03515625 76.20703125 C-72.37762296 76.74214036 -73.72006981 77.27729928 -75.0625 77.8125 C-75.71927734 78.07353516 -76.37605469 78.33457031 -77.05273438 78.60351562 C-80.34996892 79.91916093 -83.62277011 81.26665497 -86.87109375 82.69921875 C-90 84 -90 84 -92 84 C-90.12092136 76.4012697 -87.28652469 69.57903928 -83 63 C-82.01 62.505 -82.01 62.505 -81 62 C-79.87775145 60.11986894 -79.87775145 60.11986894 -78.875 57.9375 C-78.52179688 57.20402344 -78.16859375 56.47054687 -77.8046875 55.71484375 C-77.53914062 55.14894531 -77.27359375 54.58304688 -77 54 C-76.34 54 -75.68 54 -75 54 C-73.35 51.03 -71.7 48.06 -70 45 C-69.01 45 -68.02 45 -67 45 C-65.68 42.36 -64.36 39.72 -63 37 C-62.01 37 -61.02 37 -60 37 C-58.64721885 35.01310269 -57.31431695 33.01254782 -56 31 C-55.01 30.67 -54.02 30.34 -53 30 C-52.505 30.99 -52.505 30.99 -52 32 C-51.443125 31.030625 -50.88625 30.06125 -50.3125 29.0625 C-47.66964901 25.56250814 -47.08562241 25.61284336 -43 25 C-41.64631404 23.68733482 -40.31200404 22.35432675 -39 21 C-36.875 20.1875 -36.875 20.1875 -35 20 C-34.34 20.33 -33.68 20.66 -33 21 C-32.34 20.01 -31.68 19.02 -31 18 C-29.38354492 16.97265625 -29.38354492 16.97265625 -27.48046875 16.0625 C-26.78759766 15.72476563 -26.09472656 15.38703125 -25.38085938 15.0390625 C-24.65705078 14.69617188 -23.93324219 14.35328125 -23.1875 14 C-21.76341713 13.3143782 -20.34021858 12.6269162 -18.91796875 11.9375 C-17.90549072 11.44830078 -17.90549072 11.44830078 -16.87255859 10.94921875 C-15.24581566 10.12460642 -13.67288507 9.19547025 -12.11328125 8.25 C-10 7 -10 7 -8 7 C-8 6.34 -8 5.68 -8 5 C-6.20963542 3.99088542 -4.41927083 2.98177083 -2.62890625 1.97265625 C-1.02121854 1.1027487 -1.02121854 1.1027487 0 0 Z " fill="#151515" transform="translate(220,100)"/>
<path d="M0 0 C2.56695636 0.39491636 4.67123994 0.83561997 7 2 C9.3329866 2.04022391 11.66706666 2.04320247 14 2 C14 2.66 14 3.32 14 4 C14.66 3.67 15.32 3.34 16 3 C18.3329866 2.95977609 20.66706666 2.95679753 23 3 C23 3.66 23 4.32 23 5 C23.57741943 4.82041748 24.15483887 4.64083496 24.74975586 4.45581055 C27.18496496 3.96253341 28.60510919 4.13572479 31.00390625 4.70703125 C31.74447266 4.88169922 32.48503906 5.05636719 33.24804688 5.23632812 C34.01181641 5.42646484 34.77558594 5.61660156 35.5625 5.8125 C36.71395508 6.08030273 36.71395508 6.08030273 37.88867188 6.35351562 C41.49859676 7.22531091 43.85142086 7.90094724 47 10 C46.67 10.66 46.34 11.32 46 12 C44.72125 11.938125 43.4425 11.87625 42.125 11.8125 C37.47775226 11.7905445 33.68851937 12.87661135 29.30859375 14.33203125 C26.48066242 15.15026519 23.92591355 15.23099317 21 15 C21 15.99 21 16.98 21 18 C18.94921875 18.22786458 16.8984375 18.45572917 14.84765625 18.68359375 C12.98859771 18.81886614 12.98859771 18.81886614 12 20 C9.66666667 20 7.33333333 20 5 20 C4.505 20.495 4.505 20.495 4 21 C1.89360273 20.9618087 -0.21158302 20.84407557 -2.3125 20.6875 C-3.46363281 20.60886719 -4.61476562 20.53023437 -5.80078125 20.44921875 C-8.74932558 20.03519848 -10.43507939 19.38720872 -13 18 C-13.99 18 -14.98 18 -16 18 C-17.796875 16.79296875 -17.796875 16.79296875 -19.75 15.1875 C-23.36483623 12.35587829 -26.71205071 10.60798098 -31 9 C-26.03693056 4.99136699 -21.32706832 2.82526978 -15 2 C-14.278125 1.814375 -13.55625 1.62875 -12.8125 1.4375 C-10.00987698 0.76100479 -7.25127427 1.01290906 -4.375 1.0625 C-1.1621539 1.39345165 -1.1621539 1.39345165 0 0 Z " fill="#1D1D1D" transform="translate(160,178)"/>
<path d="M0 0 C0.33 0 0.66 0 1 0 C2.125 5.75 2.125 5.75 1 8 C2.32 7.67 3.64 7.34 5 7 C5 7.99 5 8.98 5 10 C6.37691962 12.75383923 8.36720042 13.51483101 11 15 C8 15 8 15 6 14 C6 14.66 6 15.32 6 16 C6.66 16 7.32 16 8 16 C8.64836042 17.74906531 9.29358784 19.49929219 9.9375 21.25 C10.29714844 22.22453125 10.65679687 23.1990625 11.02734375 24.203125 C11.81379655 26.46457161 12.47251601 28.66796552 13 31 C9.24307581 30.49230754 7.44329853 29.901417 5 27 C4.05078125 25.0625 4.05078125 25.0625 3.3125 23 C3.06113281 22.319375 2.80976563 21.63875 2.55078125 20.9375 C2 19 2 19 2 16 C1.34 16 0.68 16 0 16 C0.24556641 16.94939453 0.24556641 16.94939453 0.49609375 17.91796875 C1.17453601 22.06751093 1.10555375 26.11641498 1.0625 30.3125 C1.05798828 31.14845703 1.05347656 31.98441406 1.04882812 32.84570312 C1.03710548 34.89716649 1.01917203 36.94859273 1 39 C-0.65 39 -2.3 39 -4 39 C-5.17426264 36.65147472 -5.11508173 35.26225935 -5.09765625 32.6484375 C-5.09443359 31.79765625 -5.09121094 30.946875 -5.08789062 30.0703125 C-5.07951172 29.18085938 -5.07113281 28.29140625 -5.0625 27.375 C-5.05798828 26.4778125 -5.05347656 25.580625 -5.04882812 24.65625 C-5.03702591 22.43743352 -5.02056155 20.21874982 -5 18 C-5.24234375 18.68707031 -5.4846875 19.37414062 -5.734375 20.08203125 C-6.06953125 20.98308594 -6.4046875 21.88414062 -6.75 22.8125 C-7.07484375 23.70582031 -7.3996875 24.59914062 -7.734375 25.51953125 C-9.14652317 28.28716733 -10.27876592 29.51993948 -13 31 C-13.99 30.67 -14.98 30.34 -16 30 C-15.72285156 29.10796875 -15.44570312 28.2159375 -15.16015625 27.296875 C-14.79792969 26.12640625 -14.43570313 24.9559375 -14.0625 23.75 C-13.70285156 22.58984375 -13.34320313 21.4296875 -12.97265625 20.234375 C-11.99397301 17.17949196 -11.99397301 17.17949196 -11.55859375 14.703125 C-11 13 -11 13 -8 11 C-6.35 11.33 -4.7 11.66 -3 12 C-2.67 15.96 -2.34 19.92 -2 24 C-1.83240016 21.8750734 -1.66594799 19.75005624 -1.5 17.625 C-1.4071875 16.44164062 -1.314375 15.25828125 -1.21875 14.0390625 C-1.09804546 12.36213157 -1 10.68126944 -1 9 C-0.84405035 7.45721239 -0.67607097 5.91562095 -0.5 4.375 C-0.4071875 3.55773437 -0.314375 2.74046875 -0.21875 1.8984375 C-0.1465625 1.27195313 -0.074375 0.64546875 0 0 Z " fill="#474747" transform="translate(127,176)"/>
<path d="M0 0 C2.06723714 3.10085571 2.24497423 3.72931681 2.1953125 7.23046875 C2.18886719 8.03291016 2.18242187 8.83535156 2.17578125 9.66210938 C2.15902344 10.49548828 2.14226562 11.32886719 2.125 12.1875 C2.11597656 13.03248047 2.10695312 13.87746094 2.09765625 14.74804688 C2.07410703 16.83215243 2.03823647 18.91611217 2 21 C0.35 21 -1.3 21 -3 21 C-4.52634923 17.94730154 -3.83794444 15.24154311 -3.5625 11.875 C-3.46066406 10.59367188 -3.35882813 9.31234375 -3.25390625 7.9921875 C-3.12822266 6.51105469 -3.12822266 6.51105469 -3 5 C-2.34 5.33 -1.68 5.66 -1 6 C-0.67 4.02 -0.34 2.04 0 0 Z " fill="#4A4A4A" transform="translate(126,194)"/>
<path d="M0 0 C0.33 0 0.66 0 1 0 C1.33 5.28 1.66 10.56 2 16 C1.67 15.01 1.34 14.02 1 13 C0.01 13.495 0.01 13.495 -1 14 C-1 18.62 -1 23.24 -1 28 C-1.66 28 -2.32 28 -3 28 C-3.33 29.32 -3.66 30.64 -4 32 C-2.91759919 2.91759919 -2.91759919 2.91759919 0 0 Z " fill="#787878" transform="translate(125,26)"/>
<path d="M0 0 C2.475 0.99 2.475 0.99 5 2 C4.67 2.99 4.34 3.98 4 5 C4.99 5.33 5.98 5.66 7 6 C6.67 6.99 6.34 7.98 6 9 C4 9 2 9 0 9 C0 6.03 0 3.06 0 0 Z " fill="#0D0D0D" transform="translate(109,96)"/>
<path d="M0 0 C0.66 0 1.32 0 2 0 C2.66 1.32 3.32 2.64 4 4 C3.34 4 2.68 4 2 4 C2 8.29 2 12.58 2 17 C1.34 17.33 0.68 17.66 0 18 C-0.19430855 15.3753399 -0.38073238 12.75053235 -0.5625 10.125 C-0.61857422 9.37863281 -0.67464844 8.63226563 -0.73242188 7.86328125 C-1.11328125 2.2265625 -1.11328125 2.2265625 0 0 Z " fill="#040404" transform="translate(124,183)"/>
<path d="M0 0 C1.60875 0.928125 1.60875 0.928125 3.25 1.875 C5.79780984 3.3323679 8.35259355 4.72924491 11 6 C10.67 6.66 10.34 7.32 10 8 C8.68 8 7.36 8 6 8 C5.67 8.66 5.34 9.32 5 10 C4.15801693 8.90241493 3.32669329 7.79664683 2.5 6.6875 C2.0359375 6.07261719 1.571875 5.45773438 1.09375 4.82421875 C0 3 0 3 0 0 Z " fill="#717171" transform="translate(29,100)"/>
<path d="M0 0 C3.96 1.98 7.92 3.96 12 6 C8.64137403 7.11954199 8.25947297 6.94588779 5.1875 5.625 C1.80310945 4.25497869 -1.35860937 3.45517383 -5 3 C-5 2.67 -5 2.34 -5 2 C-3.35 2 -1.7 2 0 2 C0 1.34 0 0.68 0 0 Z " fill="#CACACA" transform="translate(111,179)"/>
<path d="M0 0 C0.66 0.33 1.32 0.66 2 1 C-3.4529148 6.72556054 -3.4529148 6.72556054 -7.24609375 7.3984375 C-9.4375 7.375 -9.4375 7.375 -13 7 C-11.75 5.4375 -11.75 5.4375 -10 4 C-7.8125 4.3125 -7.8125 4.3125 -6 5 C-5.34 4.01 -4.68 3.02 -4 2 C-2 0.75 -2 0.75 0 0 Z " fill="#6C6C6C" transform="translate(193,116)"/>
<path d="M0 0 C0.33 1.32 0.66 2.64 1 4 C2.32 4 3.64 4 5 4 C4.3125 5.9375 4.3125 5.9375 3 8 C0.375 8.75 0.375 8.75 -2 9 C-1.34 6.03 -0.68 3.06 0 0 Z " fill="#646464" transform="translate(113,198)"/>
<path d="M0 0 C2.31 0.66 4.62 1.32 7 2 C6.01 2.33 5.02 2.66 4 3 C4 3.66 4 4.32 4 5 C1.69 4.67 -0.62 4.34 -3 4 C-2.34 3.67 -1.68 3.34 -1 3 C-0.67 2.01 -0.34 1.02 0 0 Z " fill="#4F4F4F" transform="translate(87,178)"/>
<path d="M0 0 C0.33 0 0.66 0 1 0 C2.125 5.75 2.125 5.75 1 8 C2.32 7.67 3.64 7.34 5 7 C5 7.99 5 8.98 5 10 C3.35 10 1.7 10 0 10 C-1.2380014 6.42355152 -0.74926071 3.66305234 0 0 Z " fill="#808080" transform="translate(127,176)"/>
<path d="M0 0 C0.33 0.99 0.66 1.98 1 3 C-0.375 4.5 -0.375 4.5 -2 6 C-2.66 6 -3.32 6 -4 6 C-5.33783393 6.31478446 -6.67203709 6.64587656 -8 7 C-8 6.34 -8 5.68 -8 5 C-6.20963542 3.99088542 -4.41927083 2.98177083 -2.62890625 1.97265625 C-1.02121854 1.1027487 -1.02121854 1.1027487 0 0 Z " fill="#878787" transform="translate(220,100)"/>
<path d="M0 0 C0.33 0 0.66 0 1 0 C1.33 4.29 1.66 8.58 2 13 C0.02 13.99 0.02 13.99 -2 15 C-1.855625 14.01 -1.71125 13.02 -1.5625 12 C-0.99074821 8.00590535 -0.49180166 4.00467063 0 0 Z " fill="#838383" transform="translate(139,82)"/>
<path d="M0 0 C1.65 0 3.3 0 5 0 C5 1.98 5 3.96 5 6 C3.0625 5.25 3.0625 5.25 1 4 C0.25 1.875 0.25 1.875 0 0 Z " fill="#777777" transform="translate(65,152)"/>
<path d="M0 0 C1.32 0 2.64 0 4 0 C4 1.32 4 2.64 4 4 C2.02 4.33 0.04 4.66 -2 5 C-1.34 3.35 -0.68 1.7 0 0 Z " fill="#6A6A6A" transform="translate(150,145)"/>
<path d="M0 0 C0.99 0.33 1.98 0.66 3 1 C3.33 4.96 3.66 8.92 4 13 C3.01 13.33 2.02 13.66 1 14 C1.33 10.04 1.66 6.08 2 2 C1.34 2 0.68 2 0 2 C0 1.34 0 0.68 0 0 Z " fill="#868686" transform="translate(133,70)"/>
<path d="M0 0 C0.33 0 0.66 0 1 0 C1 2.31 1 4.62 1 7 C1.99 7 2.98 7 4 7 C4 7.66 4 8.32 4 9 C2.02 9.99 2.02 9.99 0 11 C-1.37432457 7.18243176 -0.67975039 3.92744671 0 0 Z " fill="#3C3C3C" transform="translate(131,65)"/>
<path d="M0 0 C1.9375 0.25 1.9375 0.25 4 1 C4.66 1.99 5.32 2.98 6 4 C3.83125748 3.49396008 2.00032373 3.00016187 0 2 C0 3.98 0 5.96 0 8 C-0.33 8 -0.66 8 -1 8 C-1.04241723 5.66705225 -1.04092937 3.33297433 -1 1 C-0.67 0.67 -0.34 0.34 0 0 Z " fill="#8E8E8E" transform="translate(109,94)"/>
<path d="M0 0 C0.99 0 1.98 0 3 0 C3 0.66 3 1.32 3 2 C4.65 2 6.3 2 8 2 C5.64561267 3.42944945 4.51967567 4.08661261 1.75 3.625 C1.1725 3.41875 0.595 3.2125 0 3 C0 2.01 0 1.02 0 0 Z " fill="#676767" transform="translate(86,195)"/>
<path d="M0 0 C0 0.66 0 1.32 0 2 C-1.98 2 -3.96 2 -6 2 C-6.33 2.66 -6.66 3.32 -7 4 C-7 3.34 -7 2.68 -7 2 C-7.66 1.67 -8.32 1.34 -9 1 C-5.57367167 -0.61798838 -3.61944899 -1.34053666 0 0 Z " fill="#535353" transform="translate(152,180)"/>
<path d="M0 0 C1.5 1.375 1.5 1.375 3 3 C3 3.66 3 4.32 3 5 C1.68 4.67 0.36 4.34 -1 4 C-1 5.65 -1 7.3 -1 9 C-1.33 9 -1.66 9 -2 9 C-2 6.69 -2 4.38 -2 2 C-1.34 2 -0.68 2 0 2 C0 1.34 0 0.68 0 0 Z " fill="#959595" transform="translate(110,105)"/>
<path d="M0 0 C1.41377341 2.63904371 2.37240135 5.07120629 3 8 C0.5625 7.625 0.5625 7.625 -2 7 C-2.33 6.34 -2.66 5.68 -3 5 C-2.34 5 -1.68 5 -1 5 C-0.67 3.35 -0.34 1.7 0 0 Z " fill="#8A8A8A" transform="translate(137,199)"/>
<path d="M0 0 C1.98 0.495 1.98 0.495 4 1 C3.34 2.65 2.68 4.3 2 6 C1.67 5.01 1.34 4.02 1 3 C0.34 3 -0.32 3 -1 3 C-0.67 2.01 -0.34 1.02 0 0 Z " fill="#7D7D7D" transform="translate(132,152)"/>
<path d="M0 0 C1.32 0 2.64 0 4 0 C3.67 1.32 3.34 2.64 3 4 C2.01 3.67 1.02 3.34 0 3 C-0.33 3.66 -0.66 4.32 -1 5 C-1.33 4.01 -1.66 3.02 -2 2 C-1.34 1.34 -0.68 0.68 0 0 Z " fill="#606060" transform="translate(59,144)"/>
<path d="M0 0 C0.66 0.33 1.32 0.66 2 1 C0.02 3.97 0.02 3.97 -2 7 C-2.66 6.67 -3.32 6.34 -4 6 C-2.25 1.125 -2.25 1.125 0 0 Z " fill="#060606" transform="translate(211,108)"/>
<path d="M0 0 C2 1 2 1 2 1 Z " fill="#EAEAEA" transform="translate(95,177)"/>
<path d="" fill="#ECECEC" transform="translate(0,0)"/>
<path d="" fill="#EBEBEB" transform="translate(0,0)"/>
<path d="" fill="#ECECEC" transform="translate(0,0)"/>
<path d="" fill="#EBEBEB" transform="translate(0,0)"/>
<path d="" fill="#E9E9E9" transform="translate(0,0)"/>
<path d="" fill="#E1E1E1" transform="translate(0,0)"/>
<path d="" fill="#EDEDED" transform="translate(0,0)"/>
<path d="" fill="#EEEEEE" transform="translate(0,0)"/>
<path d="" fill="#ECECEC" transform="translate(0,0)"/>
<path d="" fill="#EDEDED" transform="translate(0,0)"/>
<path d="" fill="#E7E7E7" transform="translate(0,0)"/>
<path d="" fill="#EDEDED" transform="translate(0,0)"/>
<path d="" fill="#ECECEC" transform="translate(0,0)"/>
<path d="" fill="#ECECEC" transform="translate(0,0)"/>
<path d="" fill="#ECECEC" transform="translate(0,0)"/>
<path d="" fill="#ECECEC" transform="translate(0,0)"/>
<path d="" fill="#EEEEEE" transform="translate(0,0)"/>
<path d="" fill="#EDEDED" transform="translate(0,0)"/>
<path d="" fill="#EBEBEB" transform="translate(0,0)"/>
<path d="" fill="#EBEBEB" transform="translate(0,0)"/>
<path d="" fill="#EBEBEB" transform="translate(0,0)"/>
<path d="" fill="#EEEEEE" transform="translate(0,0)"/>
<path d="" fill="#E7E7E7" transform="translate(0,0)"/>
<path d="" fill="#EBEBEB" transform="translate(0,0)"/>
<path d="" fill="#EBEBEB" transform="translate(0,0)"/>
<path d="" fill="#EEEEEE" transform="translate(0,0)"/>
<path d="" fill="#EEEEEE" transform="translate(0,0)"/>
<path d="" fill="#EEEEEE" transform="translate(0,0)"/>
<path d="" fill="#EDEDED" transform="translate(0,0)"/>
<path d="" fill="#ECECEC" transform="translate(0,0)"/>
<path d="" fill="#E9E9E9" transform="translate(0,0)"/>
<path d="" fill="#EDEDED" transform="translate(0,0)"/>
<path d="" fill="#EEEEEE" transform="translate(0,0)"/>
<path d="" fill="#EBEBEB" transform="translate(0,0)"/>
<path d="" fill="#EEEEEE" transform="translate(0,0)"/>
<path d="" fill="#E3E3E3" transform="translate(0,0)"/>
<path d="" fill="#EDEDED" transform="translate(0,0)"/>
<path d="" fill="#EEEEEE" transform="translate(0,0)"/>
<path d="" fill="#E9E9E9" transform="translate(0,0)"/>
<path d="" fill="#EDEDED" transform="translate(0,0)"/>
<path d="" fill="#E8E8E8" transform="translate(0,0)"/>
<path d="" fill="#E4E4E4" transform="translate(0,0)"/>
<path d="" fill="#EEEEEE" transform="translate(0,0)"/>
<path d="" fill="#EBEBEB" transform="translate(0,0)"/>
<path d="" fill="#ECECEC" transform="translate(0,0)"/>
<path d="" fill="#E7E7E7" transform="translate(0,0)"/>
<path d="" fill="#ECECEC" transform="translate(0,0)"/>
<path d="" fill="#EAEAEA" transform="translate(0,0)"/>
<path d="" fill="#ECECEC" transform="translate(0,0)"/>
<path d="" fill="#E5E5E5" transform="translate(0,0)"/>
<path d="" fill="#ECECEC" transform="translate(0,0)"/>
<path d="" fill="#E6E6E6" transform="translate(0,0)"/>
<path d="" fill="#E5E5E5" transform="translate(0,0)"/>
<path d="" fill="#EEEEEE" transform="translate(0,0)"/>
<path d="" fill="#EEEEEE" transform="translate(0,0)"/>
</svg>
