<?xml version="1.0" encoding="UTF-8"?>
<svg version="1.1" xmlns="http://www.w3.org/2000/svg" width="250" height="250">
<path d="M0 0 C0.33 0 0.66 0 1 0 C1.11214844 1.52367188 1.11214844 1.52367188 1.2265625 3.078125 C2.08638015 12.64097492 3.98332333 19.67042364 9 28 C9.66 28 10.32 28 11 28 C11 29.98 11 31.96 11 34 C11.66 34.33 12.32 34.66 13 35 C13 36.98 13 38.96 13 41 C13.66 41 14.32 41 15 41 C14.67 43.31 14.34 45.62 14 48 C14.66 48 15.32 48 16 48 C16 50.66666667 16 53.33333333 16 56 C16.33 56 16.66 56 17 56 C16.88544319 57.91731918 16.75793742 59.8338675 16.625 61.75 C16.55539063 62.81734375 16.48578125 63.8846875 16.4140625 64.984375 C16.0271777 67.80206432 15.44313834 69.5830366 14 72 C14.66 72.33 15.32 72.66 16 73 C15.7215625 74.36125 15.7215625 74.36125 15.4375 75.75 C14.80865719 78.82582563 14.80865719 78.82582563 15.5625 81.0625 C16.18582062 83.82291989 15.17928473 85.50269117 14 88 C14.66 88 15.32 88 16 88 C15.6889315 90.06271639 15.37608484 92.12516466 15.0625 94.1875 C14.80146484 95.91033203 14.80146484 95.91033203 14.53515625 97.66796875 C14.20194696 99.7426222 13.82187583 101.81096283 13.37109375 103.86328125 C13.24863281 104.56839844 13.12617188 105.27351563 13 106 C13.33 106.33 13.66 106.66 14 107 C14.28875 106.071875 14.5775 105.14375 14.875 104.1875 C16 101 16 101 18 98 C18.495 96.515 18.495 96.515 19 95 C19.66 95 20.32 95 21 95 C21.34611328 94.20335938 21.34611328 94.20335938 21.69921875 93.390625 C23.86360565 88.70254587 25.79758453 86.12487304 30 83 C30.474375 82.195625 30.94875 81.39125 31.4375 80.5625 C33.53254733 77.12662239 35.71110258 75.32963567 39 73 C39.99 73.33 40.98 73.66 42 74 C42.2475 73.195625 42.495 72.39125 42.75 71.5625 C43.1625 70.716875 43.575 69.87125 44 69 C46.0625 68.3125 46.0625 68.3125 48 68 C48.33 67.34 48.66 66.68 49 66 C49.928125 65.7834375 49.928125 65.7834375 50.875 65.5625 C53.0812475 65.17590408 53.0812475 65.17590408 54.4375 63.5 C56.51973783 61.50105168 58.17290591 61.51401711 61 61 C67.17728638 58.64139975 72.24770635 55.53768027 77.25 51.25 C80 49 80 49 82 49 C80.54923176 52.79431694 78.84568141 56.38246443 77 60 C76.484375 61.03125 75.96875 62.0625 75.4375 63.125 C74.57912621 64.84174757 73.70838816 66.55252771 72.8125 68.25 C71.85962956 69.98076655 71.85962956 69.98076655 72 72 C71.505 72.474375 71.01 72.94875 70.5 73.4375 C68.65373409 74.99969942 68.65373409 74.99969942 69 78 C68.34 78.474375 67.68 78.94875 67 79.4375 C66.34 79.953125 65.68 80.46875 65 81 C65 82.32 65 83.64 65 85 C64.01 85.66 63.02 86.32 62 87 C61.31731862 88.32520503 60.6492959 89.65812182 60 91 C59.01 91.495 59.01 91.495 58 92 C57.67 92.99 57.34 93.98 57 95 C56.01 95 55.02 95 54 95 C53.938125 95.61875 53.87625 96.2375 53.8125 96.875 C53 99 53 99 50.4375 100.25 C49.633125 100.4975 48.82875 100.745 48 101 C48 101.66 48 102.32 48 103 C45.525 103.495 45.525 103.495 43 104 C42.67 104.99 42.34 105.98 42 107 C40 108 38 109 36 110 C34.31066078 111.6436814 32.64740076 113.3142876 31 115 C28.62764014 116.89147611 26.21971107 118.72582856 23.79296875 120.546875 C23.20128906 121.02640625 22.60960937 121.5059375 22 122 C22 122.33 22 122.66 22 123 C22.556875 122.525625 23.11375 122.05125 23.6875 121.5625 C26.24868303 119.83197092 27.98689603 119.5574906 31 119 C32.63085552 118.54115801 34.25602386 118.06164121 35.875 117.5625 C36.75414062 117.29824219 37.63328125 117.03398437 38.5390625 116.76171875 C40.45425956 116.16891966 42.35545245 115.53080492 44.25 114.875 C51.96926757 113.07383757 61.16897151 112.09418216 69 113.5625 C71.80747914 113.97192404 73.36394509 113.91248055 76 113 C76 113.66 76 114.32 76 115 C77.71316406 114.97099609 77.71316406 114.97099609 79.4609375 114.94140625 C83.90325969 114.9423843 88.22247172 115.37926575 92.625 115.9375 C93.34945312 116.02451172 94.07390625 116.11152344 94.8203125 116.20117188 C98.90006268 116.70005437 102.95037095 117.29099555 107 118 C103.66553548 121.33446452 98.96975726 121.67881746 94.48046875 122.8046875 C90.89435448 124.0362823 88.87815276 125.59987954 86 128 C82.6875 128.25 82.6875 128.25 80 128 C80 128.66 80 129.32 80 130 C76.7665675 131.1040989 73.53818718 132.13084696 70.25 133.0625 C67.14615772 133.85117391 67.14615772 133.85117391 65 135 C61.80316086 135.2639592 58.61315987 135.44382184 55.41015625 135.60546875 C51.57873373 135.76355994 51.57873373 135.76355994 48 137 C44.63188686 136.57455413 41.31138122 135.96661615 37.96875 135.375 C35.07633184 134.73026012 35.07633184 134.73026012 33 136 C31.39163729 135.91175355 29.78653409 135.75668555 28.1875 135.5625 C24.76232685 135.1531374 21.45069694 134.94424368 18 135 C20.64 135.33 23.28 135.66 26 136 C26 136.66 26 137.32 26 138 C27.98 137.67 29.96 137.34 32 137 C32.33 138.32 32.66 139.64 33 141 C34.98 141 36.96 141 39 141 C39 141.99 39 142.98 39 144 C40.32 144.33 41.64 144.66 43 145 C43 145.66 43 146.32 43 147 C43.58652344 147.08507812 44.17304688 147.17015625 44.77734375 147.2578125 C47.62894031 148.21001522 48.67010903 149.56348889 50.5625 151.875 C52.99591298 154.83049124 52.99591298 154.83049124 55.671875 157.55859375 C57.69677729 159.75620829 57.6787701 162.10893092 58 165 C57.443125 164.71253906 56.88625 164.42507812 56.3125 164.12890625 C53.9089223 162.95553808 51.48241717 161.93273737 49 160.9375 C48.154375 160.59589844 47.30875 160.25429687 46.4375 159.90234375 C44.29196958 159.10808489 42.22639777 158.50889092 40 158 C33.25581395 156.25581395 33.25581395 156.25581395 31 154 C30.34 154.33 29.68 154.66 29 155 C28.443125 154.54625 27.88625 154.0925 27.3125 153.625 C25.10982292 151.9393994 25.10982292 151.9393994 22.75 151.125 C17.09192762 148.81033403 12.10569614 145.54559215 8 141 C6.67036521 139.66297835 5.33747195 138.32918183 4 137 C3.96241577 138.09501831 3.96241577 138.09501831 3.92407227 139.2121582 C3.80670585 142.57905724 3.68462825 145.94577046 3.5625 149.3125 C3.52318359 150.46041016 3.48386719 151.60832031 3.44335938 152.79101562 C3.2155906 158.97581382 2.8414098 165.10601458 2.23852539 171.26489258 C1.80548264 176.23047905 1.63234213 181.20784614 1.4375 186.1875 C1.37272461 187.75854492 1.37272461 187.75854492 1.30664062 189.36132812 C1.20200491 191.90746397 1.09982454 194.45367178 1 197 C1.66 197.33 2.32 197.66 3 198 C1.0085944 198.38133299 -0.99279077 198.71325582 -3 199 C-5.00883102 196.99116898 -4.18510734 193.05688006 -4.1875 190.3125 C-4.19974609 189.62349609 -4.21199219 188.93449219 -4.22460938 188.22460938 C-4.24058667 182.29703419 -3.39661023 176.61023624 -2.51000977 170.75756836 C-1.64755139 164.40328549 -1.27239726 158.02244434 -0.875 151.625 C-0.78825327 150.29163451 -0.70101558 148.95830087 -0.61328125 147.625 C-0.40406019 144.41694369 -0.19969851 141.20866069 0 138 C-1.70840281 139.63412443 -2.93453047 140.86906094 -4 143 C-4.99 143.33 -5.98 143.66 -7 144 C-7.639375 144.639375 -8.27875 145.27875 -8.9375 145.9375 C-11.56070403 148.56070403 -14.01178324 149.61991663 -17.4375 150.9375 C-20.08787578 151.96125806 -20.08787578 151.96125806 -22.6875 153.625 C-25 155 -25 155 -27 155 C-27.66 155.66 -28.32 156.32 -29 157 C-31.20703125 157.5625 -31.20703125 157.5625 -33.8125 158 C-37.43940678 158.66701734 -40.63084098 159.45981302 -44 161 C-44.845625 161.33 -45.69125 161.66 -46.5625 162 C-48.770342 162.90578133 -50.88247425 163.90202369 -53 165 C-53 159.21855519 -48.7032793 155.14414589 -45 151 C-40.47368421 147 -40.47368421 147 -38 147 C-37.67 146.01 -37.34 145.02 -37 144 C-36.01 144 -35.02 144 -34 144 C-33.67 143.01 -33.34 142.02 -33 141 C-31.35 141 -29.7 141 -28 141 C-27.67 140.01 -27.34 139.02 -27 138 C-23.9375 136.8125 -23.9375 136.8125 -21 136 C-24.59200451 134.82315745 -27.69675874 135.05498283 -31.4375 135.375 C-33.10619141 135.51035156 -33.10619141 135.51035156 -34.80859375 135.6484375 C-37.8854859 135.91540861 -37.8854859 135.91540861 -40.37109375 136.58984375 C-44.20870241 137.18857913 -47.79044978 136.66845468 -51.625 136.1875 C-52.388125 136.10435547 -53.15125 136.02121094 -53.9375 135.93554688 C-57.62735767 135.49211661 -59.86204085 135.09197277 -63 133 C-64.0828125 132.7834375 -64.0828125 132.7834375 -65.1875 132.5625 C-68.30451794 131.93909641 -71.06554474 130.90277522 -74.01953125 129.75 C-75.69573727 129.11522376 -77.40821629 128.57753511 -79.125 128.0625 C-82 127 -82 127 -84.625 125.0625 C-88.76379535 122.53323618 -92.66792447 121.75430866 -97.390625 120.80859375 C-100 120 -100 120 -102 117 C-100.83984375 116.95101562 -99.6796875 116.90203125 -98.484375 116.8515625 C-90.36684661 116.47454976 -82.49372756 115.9134653 -74.4921875 114.40625 C-71.27463393 113.88175851 -68.25217688 113.93080475 -65 114 C-64.01 113.67 -63.02 113.34 -62 113 C-59.3125 113.9375 -59.3125 113.9375 -57 115 C-56.67 114.34 -56.34 113.68 -56 113 C-25.27357679 116.06860468 -25.27357679 116.06860468 -14.25 124.625 C-12.03565436 126.33232258 -10.73350829 127.08883057 -8 128 C-8 128.66 -8 129.32 -8 130 C-7.34 129.67 -6.68 129.34 -6 129 C-7.98 128.01 -7.98 128.01 -10 127 C-10 126.34 -10 125.68 -10 125 C-10.9075 124.731875 -11.815 124.46375 -12.75 124.1875 C-15.72991834 123.09868368 -17.68590359 122.13608899 -20 120 C-20 119.34 -20 118.68 -20 118 C-20.680625 117.79375 -21.36125 117.5875 -22.0625 117.375 C-26.32860149 115.37810143 -30.84788222 112.30423557 -33 108 C-34.31252882 107.29325371 -35.65278717 106.63815344 -37 106 C-41.3277674 103.6393996 -45.32991152 101.33644407 -49 98 C-49 97.34 -49 96.68 -49 96 C-50.32 95.34 -51.64 94.68 -53 94 C-53 93.34 -53 92.68 -53 92 C-53.639375 91.525625 -54.27875 91.05125 -54.9375 90.5625 C-57 89 -57 89 -58 86 C-59.49985609 84.33289654 -59.49985609 84.33289654 -61 83 C-60.67 82.34 -60.34 81.68 -60 81 C-60.825 80.4225 -61.65 79.845 -62.5 79.25 C-63.325 78.5075 -64.15 77.765 -65 77 C-65 75.68 -65 74.36 -65 73 C-65.45375 72.54625 -65.9075 72.0925 -66.375 71.625 C-68.62771395 69.37228605 -69.02887676 67.0276195 -70 64 C-72.22040497 59.01155655 -74.87220052 54.46828497 -78 50 C-73.55234376 50 -72.87376544 50.74094754 -69.7109375 53.55859375 C-65.58366946 57.03567573 -61.27384505 59.79902539 -56 61 C-53.65794699 61.97940398 -51.32481174 62.98034573 -49 64 C-47.576875 64.495 -47.576875 64.495 -46.125 65 C-45.42375 65.33 -44.7225 65.66 -44 66 C-43.67 66.99 -43.34 67.98 -43 69 C-42.01 68.67 -41.02 68.34 -40 68 C-37 71.75 -37 71.75 -37 74 C-35.68 73.67 -34.36 73.34 -33 73 C-32.54625 73.66 -32.0925 74.32 -31.625 75 C-31.08875 75.66 -30.5525 76.32 -30 77 C-29.34 77 -28.68 77 -28 77 C-26.4921875 78.64453125 -26.4921875 78.64453125 -24.875 80.8125 C-24.06675781 81.87404297 -24.06675781 81.87404297 -23.2421875 82.95703125 C-22 85 -22 85 -22 88 C-21.01 88 -20.02 88 -19 88 C-17.5393715 90.64738916 -17 91.89448334 -17 95 C-16.01 95 -15.02 95 -14 95 C-13.71125 95.94875 -13.4225 96.8975 -13.125 97.875 C-12.23174891 101.05211578 -12.23174891 101.05211578 -10 103 C-9.24785002 104.5207704 -8.54332588 106.06557295 -7.875 107.625 C-7.52179688 108.44226563 -7.16859375 109.25953125 -6.8046875 110.1015625 C-6.53914063 110.72804688 -6.27359375 111.35453125 -6 112 C-6.20496094 111.28714844 -6.40992187 110.57429688 -6.62109375 109.83984375 C-8.10559402 104.56240978 -9.35797633 99.4572012 -10 94 C-10.3274322 91.99902542 -10.65876419 89.99866686 -11 88 C-10.34 87.67 -9.68 87.34 -9 87 C-9.33 86.401875 -9.66 85.80375 -10 85.1875 C-11 83 -11 83 -11 80 C-10.34 79.67 -9.68 79.34 -9 79 C-9.66 77.02 -10.32 75.04 -11 73 C-10.34 72.67 -9.68 72.34 -9 72 C-9.33 71.46375 -9.66 70.9275 -10 70.375 C-11.23628825 67.4388154 -11.06466428 65.16854948 -11 62 C-11.291224 60.32546201 -11.61070799 58.65449105 -12 57 C-11.34 56.67 -10.68 56.34 -10 56 C-10.495 52.535 -10.495 52.535 -11 49 C-10.34 48.67 -9.68 48.34 -9 48 C-9.495 44.535 -9.495 44.535 -10 41 C-8.515 41.495 -8.515 41.495 -7 42 C-7.66 39.69 -8.32 37.38 -9 35 C-8.34 34.67 -7.68 34.34 -7 34 C-6.34 34.33 -5.68 34.66 -5 35 C-5.495 31.535 -5.495 31.535 -6 28 C-5.01 28 -4.02 28 -3 28 C-3.09539062 26.9378125 -3.19078125 25.875625 -3.2890625 24.78125 C-4.66058164 7.98956852 -4.66058164 7.98956852 0 0 Z " fill="#111111" transform="translate(122,26)"/>
<path d="M0 0 C-1.45076824 3.79431694 -3.15431859 7.38246443 -5 11 C-5.515625 12.03125 -6.03125 13.0625 -6.5625 14.125 C-7.42087379 15.84174757 -8.29161184 17.55252771 -9.1875 19.25 C-10.14037044 20.98076655 -10.14037044 20.98076655 -10 23 C-10.495 23.474375 -10.99 23.94875 -11.5 24.4375 C-13.34626591 25.99969942 -13.34626591 25.99969942 -13 29 C-13.99 29.7115625 -13.99 29.7115625 -15 30.4375 C-15.66 30.953125 -16.32 31.46875 -17 32 C-17 33.32 -17 34.64 -17 36 C-17.99 36.66 -18.98 37.32 -20 38 C-20.68268138 39.32520503 -21.3507041 40.65812182 -22 42 C-22.99 42.495 -22.99 42.495 -24 43 C-24.33 43.99 -24.66 44.98 -25 46 C-25.99 46 -26.98 46 -28 46 C-28.0928125 46.928125 -28.0928125 46.928125 -28.1875 47.875 C-29 50 -29 50 -31.5625 51.25 C-32.366875 51.4975 -33.17125 51.745 -34 52 C-34 52.66 -34 53.32 -34 54 C-36.475 54.495 -36.475 54.495 -39 55 C-39.33 55.99 -39.66 56.98 -40 58 C-42 59 -44 60 -46 61 C-47.68933922 62.6436814 -49.35259924 64.3142876 -51 66 C-55.41869475 69.83775082 -59.68403669 72.97079982 -65.0625 75.3125 C-70.33724692 77.7294119 -72.75564491 81.34406377 -76.10546875 85.94921875 C-78 88 -78 88 -80.05078125 88.64453125 C-82 88.625 -82 88.625 -85 88 C-84.34 86.68 -83.68 85.36 -83 84 C-82.67 84.66 -82.34 85.32 -82 86 C-80.04105639 85.88693303 -80.04105639 85.88693303 -78 85 C-76.80161791 82.67145537 -76.80161791 82.67145537 -76 80 C-75.67515625 79.39285156 -75.3503125 78.78570312 -75.015625 78.16015625 C-73.85810745 75.69820547 -73.36721503 73.42202443 -72.875 70.75 C-72.70742187 69.85796875 -72.53984375 68.9659375 -72.3671875 68.046875 C-72.24601563 67.37140625 -72.12484375 66.6959375 -72 66 C-71.34 66 -70.68 66 -70 66 C-69.896875 64.989375 -69.79375 63.97875 -69.6875 62.9375 C-68.75680827 57.60717465 -67.02251067 53.53376601 -64 49 C-63.67 48.01 -63.34 47.02 -63 46 C-62.34 46 -61.68 46 -61 46 C-60.65388672 45.20335938 -60.65388672 45.20335938 -60.30078125 44.390625 C-58.13639435 39.70254587 -56.20241547 37.12487304 -52 34 C-51.525625 33.195625 -51.05125 32.39125 -50.5625 31.5625 C-48.46745267 28.12662239 -46.28889742 26.32963567 -43 24 C-42.01 24.33 -41.02 24.66 -40 25 C-39.7525 24.195625 -39.505 23.39125 -39.25 22.5625 C-38.8375 21.716875 -38.425 20.87125 -38 20 C-35.9375 19.3125 -35.9375 19.3125 -34 19 C-33.67 18.34 -33.34 17.68 -33 17 C-32.38125 16.855625 -31.7625 16.71125 -31.125 16.5625 C-28.9187525 16.17590408 -28.9187525 16.17590408 -27.5625 14.5 C-25.48026217 12.50105168 -23.82709409 12.51401711 -21 12 C-14.82271362 9.64139975 -9.75229365 6.53768027 -4.75 2.25 C-2 0 -2 0 0 0 Z " fill="#121212" transform="translate(204,75)"/>
<path d="M0 0 C4.03617253 1.34539084 6.0292788 3.0292788 9 6 C12.8698741 8.7401593 16.35385608 10.9469972 21 12 C23.34205301 12.97940398 25.67518826 13.98034573 28 15 C28.94875 15.33 29.8975 15.66 30.875 16 C31.57625 16.33 32.2775 16.66 33 17 C33.495 18.485 33.495 18.485 34 20 C34.99 19.67 35.98 19.34 37 19 C40 22.75 40 22.75 40 25 C41.32 24.67 42.64 24.34 44 24 C44.680625 24.99 44.680625 24.99 45.375 26 C45.91125 26.66 46.4475 27.32 47 28 C47.66 28 48.32 28 49 28 C50.5078125 29.64453125 50.5078125 29.64453125 52.125 31.8125 C52.66382813 32.52019531 53.20265625 33.22789063 53.7578125 33.95703125 C55 36 55 36 55 39 C55.99 39 56.98 39 58 39 C59.4606285 41.64738916 60 42.89448334 60 46 C60.99 46 61.98 46 63 46 C63.28875 46.94875 63.5775 47.8975 63.875 48.875 C64.76825109 52.05211578 64.76825109 52.05211578 67 54 C69.73345236 58.52070968 70.31549831 61.74169479 70 67 C70.66 67 71.32 67 72 67 C75.44419134 77.37357631 75.44419134 77.37357631 75 83 C73.85050412 82.21366078 72.70551011 81.42073742 71.5625 80.625 C70.92441406 80.18414062 70.28632812 79.74328125 69.62890625 79.2890625 C68 78 68 78 67 76 C66.071875 75.690625 65.14375 75.38125 64.1875 75.0625 C61.1779166 74.05930553 59.31333481 73.13538598 57 71 C57 70.34 57 69.68 57 69 C56.319375 68.79375 55.63875 68.5875 54.9375 68.375 C50.67139851 66.37810143 46.15211778 63.30423557 44 59 C42.68747118 58.29325371 41.34721283 57.63815344 40 57 C35.6722326 54.6393996 31.67008848 52.33644407 28 49 C28 48.34 28 47.68 28 47 C26.68 46.34 25.36 45.68 24 45 C24 44.34 24 43.68 24 43 C23.360625 42.525625 22.72125 42.05125 22.0625 41.5625 C20 40 20 40 19 37 C17.50014391 35.33289654 17.50014391 35.33289654 16 34 C16.33 33.34 16.66 32.68 17 32 C15.7625 31.13375 15.7625 31.13375 14.5 30.25 C13.675 29.5075 12.85 28.765 12 28 C12 26.68 12 25.36 12 24 C11.319375 23.319375 11.319375 23.319375 10.625 22.625 C8.37228605 20.37228605 7.97112324 18.0276195 7 15 C4.77959503 10.01155655 2.12779948 5.46828497 -1 1 C-0.67 0.67 -0.34 0.34 0 0 Z " fill="#151515" transform="translate(45,75)"/>
<path d="M0 0 C2.31 0.66 4.62 1.32 7 2 C7.33 1.34 7.66 0.68 8 0 C38.72642321 3.06860468 38.72642321 3.06860468 49.75 11.625 C51.96434564 13.33232258 53.26649171 14.08883057 56 15 C56.6875 17.0625 56.6875 17.0625 57 19 C58.98 19.495 58.98 19.495 61 20 C57.88321565 20.90239454 55.0204967 21.16074454 51.78125 21.24609375 C50.77263916 21.27791748 49.76402832 21.30974121 48.72485352 21.3425293 C47.66065186 21.37386963 46.5964502 21.40520996 45.5 21.4375 C35.9693006 21.72981151 35.9693006 21.72981151 26.5625 23.1875 C19.10726349 24.68967452 11.39425931 23.44827712 4 22 C3.01 21.34 2.02 20.68 1 20 C0.278125 19.855625 -0.44375 19.71125 -1.1875 19.5625 C-4.30451794 18.93909641 -7.06554474 17.90277522 -10.01953125 16.75 C-11.69573727 16.11522376 -13.40821629 15.57753511 -15.125 15.0625 C-18 14 -18 14 -20.625 12.0625 C-24.76379535 9.53323618 -28.66792447 8.75430866 -33.390625 7.80859375 C-36 7 -36 7 -38 4 C-36.83984375 3.95101562 -35.6796875 3.90203125 -34.484375 3.8515625 C-26.36972115 3.47468326 -18.49815966 2.91701349 -10.5 1.40625 C-7.28381591 0.88362009 -4.24938058 0.92779154 -1 1 C-0.67 0.67 -0.34 0.34 0 0 Z " fill="#141414" transform="translate(58,139)"/>
<path d="M0 0 C0.495 1.485 0.495 1.485 1 3 C1.309375 3.71414062 1.61875 4.42828125 1.9375 5.1640625 C4.2692869 10.56489246 6.38707762 16.01319941 6 22 C5.34 22.66 4.68 23.32 4 24 C4 24.33 4 24.66 4 25 C5.65 25.33 7.3 25.66 9 26 C8.85912664 30.10435228 8.71137528 34.20843079 8.5625 38.3125 C8.52318359 39.46041016 8.48386719 40.60832031 8.44335938 41.79101562 C8.2155906 47.97581382 7.8414098 54.10601458 7.23852539 60.26489258 C6.80548264 65.23047905 6.63234213 70.20784614 6.4375 75.1875 C6.37272461 76.75854492 6.37272461 76.75854492 6.30664062 78.36132812 C6.20200491 80.90746397 6.09982454 83.45367178 6 86 C6.99 86.495 6.99 86.495 8 87 C6.0085944 87.38133299 4.00720923 87.71325582 2 88 C-0.00883102 85.99116898 0.81489266 82.05688006 0.8125 79.3125 C0.80025391 78.62349609 0.78800781 77.93449219 0.77539062 77.22460938 C0.75941333 71.29703419 1.60338977 65.61023624 2.48999023 59.75756836 C3.35244861 53.40328549 3.72760274 47.02244434 4.125 40.625 C4.21174673 39.29163451 4.29898442 37.95830087 4.38671875 36.625 C4.59593981 33.41694369 4.80030149 30.20866069 5 27 C3.29159719 28.63412443 2.06546953 29.86906094 1 32 C0.01 32.33 -0.98 32.66 -2 33 C-2.639375 33.639375 -3.27875 34.27875 -3.9375 34.9375 C-6.56070403 37.56070403 -9.01178324 38.61991663 -12.4375 39.9375 C-15.08787578 40.96125806 -15.08787578 40.96125806 -17.6875 42.625 C-20 44 -20 44 -22 44 C-22.66 44.66 -23.32 45.32 -24 46 C-26.20703125 46.5625 -26.20703125 46.5625 -28.8125 47 C-32.43940678 47.66701734 -35.63084098 48.45981302 -39 50 C-40.2684375 50.495 -40.2684375 50.495 -41.5625 51 C-43.770342 51.90578133 -45.88247425 52.90202369 -48 54 C-48 48.21855519 -43.7032793 44.14414589 -40 40 C-35.47368421 36 -35.47368421 36 -33 36 C-32.67 35.01 -32.34 34.02 -32 33 C-31.01 33 -30.02 33 -29 33 C-28.67 32.01 -28.34 31.02 -28 30 C-26.35 30 -24.7 30 -23 30 C-22.67 29.01 -22.34 28.02 -22 27 C-18.9375 25.8125 -18.9375 25.8125 -16 25 C-16.495 24.01 -16.495 24.01 -17 23 C-10.97403427 21.9287172 -5.11090483 21.90054585 1 22 C0.01 21.67 -0.98 21.34 -2 21 C-1.67 20.34 -1.34 19.68 -1 19 C-0.01 19 0.98 19 2 19 C1.855625 17.989375 1.71125 16.97875 1.5625 15.9375 C1.04166667 12.29166667 0.52083333 8.64583333 0 5 C-0.66 5 -1.32 5 -2 5 C-1.125 1.125 -1.125 1.125 0 0 Z " fill="#1C1C1C" transform="translate(117,137)"/>
<path d="M0 0 C0 0.66 0 1.32 0 2 C-0.78375 2.268125 -1.5675 2.53625 -2.375 2.8125 C-5.28114923 3.84814432 -5.28114923 3.84814432 -7 7 C-7.66 7 -8.32 7 -9 7 C-9 7.66 -9 8.32 -9 9 C-6.36 9 -3.72 9 -1 9 C-1.99 9.66 -2.98 10.32 -4 11 C-1.36 11.33 1.28 11.66 4 12 C4 12.66 4 13.32 4 14 C5.98 13.67 7.96 13.34 10 13 C10.33 14.32 10.66 15.64 11 17 C12.98 17 14.96 17 17 17 C17 17.99 17 18.98 17 20 C18.32 20.33 19.64 20.66 21 21 C21 21.66 21 22.32 21 23 C21.58652344 23.08507812 22.17304688 23.17015625 22.77734375 23.2578125 C25.62894031 24.21001522 26.67010903 25.56348889 28.5625 27.875 C30.99591298 30.83049124 30.99591298 30.83049124 33.671875 33.55859375 C35.69677729 35.75620829 35.6787701 38.10893092 36 41 C35.443125 40.71253906 34.88625 40.42507812 34.3125 40.12890625 C31.9089223 38.95553808 29.48241717 37.93273737 27 36.9375 C26.154375 36.59589844 25.30875 36.25429687 24.4375 35.90234375 C22.29196958 35.10808489 20.22639777 34.50889092 18 34 C11.25581395 32.25581395 11.25581395 32.25581395 9 30 C8.34 30.33 7.68 30.66 7 31 C6.443125 30.54625 5.88625 30.0925 5.3125 29.625 C3.10982292 27.9393994 3.10982292 27.9393994 0.75 27.125 C-4.90807238 24.81033403 -9.89430386 21.54559215 -14 17 C-14.7425 16.2575 -15.485 15.515 -16.25 14.75 C-16.8275 14.1725 -17.405 13.595 -18 13 C-15.44087258 7.50753314 -11.99082352 3.27412706 -6.875 0 C-3.95622331 -1.01522667 -2.80201597 -1.1854683 0 0 Z " fill="#1F1F1F" transform="translate(144,150)"/>
<path d="M0 0 C1.98 0 3.96 0 6 0 C5.85912664 4.10435228 5.71137528 8.20843079 5.5625 12.3125 C5.52318359 13.46041016 5.48386719 14.60832031 5.44335938 15.79101562 C5.2155906 21.97581382 4.8414098 28.10601458 4.23852539 34.26489258 C3.80548264 39.23047905 3.63234213 44.20784614 3.4375 49.1875 C3.39431641 50.23486328 3.35113281 51.28222656 3.30664062 52.36132812 C3.20200491 54.90746397 3.09982454 57.45367178 3 60 C3.66 60.33 4.32 60.66 5 61 C3.0085944 61.38133299 1.00720923 61.71325582 -1 62 C-3.00883102 59.99116898 -2.18510734 56.05688006 -2.1875 53.3125 C-2.20586914 52.27899414 -2.20586914 52.27899414 -2.22460938 51.22460938 C-2.24058667 45.29703419 -1.39661023 39.61023624 -0.51000977 33.75756836 C0.35244861 27.40328549 0.72760274 21.02244434 1.125 14.625 C1.21174673 13.29163451 1.29898442 11.95830087 1.38671875 10.625 C1.59593981 7.41694369 1.80030149 4.20866069 2 1 C1.34 0.67 0.68 0.34 0 0 Z " fill="#585858" transform="translate(120,163)"/>
<path d="M0 0 C0.33 0.99 0.66 1.98 1 3 C1.4640625 4.07121094 1.4640625 4.07121094 1.9375 5.1640625 C4.2692869 10.56489246 6.38707762 16.01319941 6 22 C5.34 22.66 4.68 23.32 4 24 C4 24.33 4 24.66 4 25 C-2.70019789 25.70132913 -9.26257354 26.11044961 -16 26 C-16.33 25.01 -16.66 24.02 -17 23 C-10.97403427 21.9287172 -5.11090483 21.90054585 1 22 C0.01 21.67 -0.98 21.34 -2 21 C-1.67 20.34 -1.34 19.68 -1 19 C-0.01 19 0.98 19 2 19 C1.855625 17.989375 1.71125 16.97875 1.5625 15.9375 C1.04166667 12.29166667 0.52083333 8.64583333 0 5 C-0.66 5 -1.32 5 -2 5 C-1.125 1.125 -1.125 1.125 0 0 Z " fill="#C4C4C4" transform="translate(117,137)"/>
<path d="M0 0 C0.9075 0.185625 1.815 0.37125 2.75 0.5625 C5.68314324 0.95734621 7.2644657 0.94691572 10 0 C10 0.66 10 1.32 10 2 C11.71316406 1.97099609 11.71316406 1.97099609 13.4609375 1.94140625 C17.90325969 1.9423843 22.22247172 2.37926575 26.625 2.9375 C27.34945312 3.02451172 28.07390625 3.11152344 28.8203125 3.20117188 C32.90006268 3.70005437 36.95037095 4.29099555 41 5 C38.13367056 7.86632944 34.70683574 8.2315668 30.875 9.125 C30.12089844 9.30675781 29.36679688 9.48851562 28.58984375 9.67578125 C26.72808054 10.12354709 24.86422747 10.56260722 23 11 C22.34 9.68 21.68 8.36 21 7 C21.66 7 22.32 7 23 7 C22.67 6.34 22.34 5.68 22 5 C19.42048126 4.30906104 19.42048126 4.30906104 16.4375 3.875 C15.42558594 3.70742187 14.41367188 3.53984375 13.37109375 3.3671875 C12.58863281 3.24601563 11.80617187 3.12484375 11 3 C10.67 3.66 10.34 4.32 10 5 C8.02 4.34 6.04 3.68 4 3 C3.67 3.66 3.34 4.32 3 5 C2.87625 4.360625 2.7525 3.72125 2.625 3.0625 C2.315625 2.0415625 2.315625 2.0415625 2 1 C1.34 0.67 0.68 0.34 0 0 Z " fill="#323232" transform="translate(188,139)"/>
<path d="M0 0 C4.03617253 1.34539084 6.0292788 3.0292788 9 6 C12.8310567 8.71267369 16.35403568 11.0562885 21 12 C21 12.33 21 12.66 21 13 C18.36 12.67 15.72 12.34 13 12 C12.8453125 12.8971875 12.8453125 12.8971875 12.6875 13.8125 C11.91123545 16.28243264 10.92911079 17.32251235 9 19 C8.5875 18.154375 8.175 17.30875 7.75 16.4375 C5.06128993 11.15610522 2.07164589 6.06821571 -1 1 C-0.67 0.67 -0.34 0.34 0 0 Z " fill="#3C3C3C" transform="translate(45,75)"/>
<path d="M0 0 C0.66 0.33 1.32 0.66 2 1 C1.67 1.66 1.34 2.32 1 3 C-1.984375 3.37890625 -1.984375 3.37890625 -5.75 3.5625 C-11.94254994 3.81847202 -11.94254994 3.81847202 -18 5 C-18.33 5.66 -18.66 6.32 -19 7 C-19.33 7.33 -19.66 7.66 -20 8 C-20 8.99 -20 9.98 -20 11 C-22.62897735 10.41012695 -25.25225094 9.80395811 -27.875 9.1875 C-28.62136719 9.02185547 -29.36773437 8.85621094 -30.13671875 8.68554688 C-35.7734375 7.33984375 -35.7734375 7.33984375 -38 4 C-36.83984375 3.95101562 -35.6796875 3.90203125 -34.484375 3.8515625 C-26.36972115 3.47468326 -18.49815966 2.91701349 -10.5 1.40625 C-7.28381591 0.88362009 -4.24938058 0.92779154 -1 1 C-0.67 0.67 -0.34 0.34 0 0 Z " fill="#454545" transform="translate(58,139)"/>
<path d="M0 0 C0 0.66 0 1.32 0 2 C-0.78375 2.268125 -1.5675 2.53625 -2.375 2.8125 C-5.28114923 3.84814432 -5.28114923 3.84814432 -7 7 C-7.66 7 -8.32 7 -9 7 C-9 7.66 -9 8.32 -9 9 C-6.36 9 -3.72 9 -1 9 C-1.99 9.66 -2.98 10.32 -4 11 C-1.36 11.33 1.28 11.66 4 12 C4 12.33 4 12.66 4 13 C-1.94 13 -7.88 13 -14 13 C-14.33 13.66 -14.66 14.32 -15 15 C-15.99 14.34 -16.98 13.68 -18 13 C-15.44087258 7.50753314 -11.99082352 3.27412706 -6.875 0 C-3.95622331 -1.01522667 -2.80201597 -1.1854683 0 0 Z " fill="#646464" transform="translate(144,150)"/>
<path d="M0 0 C2 3 2 3 1.625 5.6875 C1.41875 6.450625 1.2125 7.21375 1 8 C0.34 8 -0.32 8 -1 8 C-1.01417969 8.61746094 -1.02835938 9.23492187 -1.04296875 9.87109375 C-1.42666642 16.68432002 -3.27877821 21.31518147 -7 27 C-7.33 27 -7.66 27 -8 27 C-7.62200324 21.04655103 -6.64378569 16.64288864 -4.0546875 11.28515625 C-2.37094393 7.63704518 -1.19539612 3.83070119 0 0 Z " fill="#D5D5D5" transform="translate(133,133)"/>
<path d="M0 0 C0.33 0 0.66 0 1 0 C1 7.92 1 15.84 1 24 C0.01 24 -0.98 24 -2 24 C-2.19193154 7.62184189 -2.19193154 7.62184189 -1 1 C-0.67 0.67 -0.34 0.34 0 0 Z " fill="#030303" transform="translate(121,199)"/>
<path d="M0 0 C0.33 0.99 0.66 1.98 1 3 C1.309375 3.71414062 1.61875 4.42828125 1.9375 5.1640625 C4.40717515 10.88426597 5.59885129 15.78219503 6 22 C4 21 4 21 2.9296875 18.41796875 C2.58164063 17.35191406 2.23359375 16.28585938 1.875 15.1875 C1.52179688 14.12917969 1.16859375 13.07085937 0.8046875 11.98046875 C0 9 0 9 0 5 C-0.66 5 -1.32 5 -2 5 C-1.125 1.125 -1.125 1.125 0 0 Z " fill="#E7E7E7" transform="translate(117,137)"/>
<path d="M0 0 C0.9075 0.185625 1.815 0.37125 2.75 0.5625 C5.68314324 0.95734621 7.2644657 0.94691572 10 0 C10 0.66 10 1.32 10 2 C11.7015625 1.9690625 11.7015625 1.9690625 13.4375 1.9375 C18.01373431 1.9375 22.46600358 2.41851692 27 3 C27.77472656 3.09539062 28.54945313 3.19078125 29.34765625 3.2890625 C31.23230746 3.52173549 33.11623622 3.76024825 35 4 C35 4.33 35 4.66 35 5 C26.73252149 5.23658921 19.07953776 4.81344335 11 3 C10.67 3.66 10.34 4.32 10 5 C8.02 4.34 6.04 3.68 4 3 C3.67 3.66 3.34 4.32 3 5 C2.87625 4.360625 2.7525 3.72125 2.625 3.0625 C2.315625 2.0415625 2.315625 2.0415625 2 1 C1.34 0.67 0.68 0.34 0 0 Z " fill="#808080" transform="translate(188,139)"/>
<path d="M0 0 C3.9670255 1.32234183 6.19774087 2.91751495 9 6 C9.5775 6.5775 10.155 7.155 10.75 7.75 C11.1625 8.1625 11.575 8.575 12 9 C11.34 9 10.68 9 10 9 C8.37485532 10.45833358 8.37485532 10.45833358 7 12 C4.0843836 8.45960866 1.49872182 4.8373228 -1 1 C-0.67 0.67 -0.34 0.34 0 0 Z " fill="#393939" transform="translate(45,75)"/>
<path d="M0 0 C1.875 0.625 1.875 0.625 4 2 C5.25 5.125 5.25 5.125 6 8 C5.34 8 4.68 8 4 8 C4 9.32 4 10.64 4 12 C3.01 12 2.02 12 1 12 C0.67 12.99 0.34 13.98 0 15 C-0.33 13.35 -0.66 11.7 -1 10 C-0.34 9.67 0.32 9.34 1 9 C0.649375 8.443125 0.29875 7.88625 -0.0625 7.3125 C-1.21845993 4.46113217 -0.80967438 2.91482778 0 0 Z " fill="#535353" transform="translate(112,89)"/>
<path d="M0 0 C0.99 0.33 1.98 0.66 3 1 C1.02 3.31 -0.96 5.62 -3 8 C-2.34 8.66 -1.68 9.32 -1 10 C-3.3125 12.0625 -3.3125 12.0625 -6 14 C-6.99 13.67 -7.98 13.34 -9 13 C-6.74684823 7.86782097 -3.73936478 4.0903084 0 0 Z " fill="#666666" transform="translate(77,177)"/>
<path d="M0 0 C1.98 0 3.96 0 6 0 C5.67 8.58 5.34 17.16 5 26 C4.67 26 4.34 26 4 26 C3.67 21.05 3.34 16.1 3 11 C2.67 11 2.34 11 2 11 C2 7.7 2 4.4 2 1 C1.34 0.67 0.68 0.34 0 0 Z " fill="#757575" transform="translate(120,163)"/>
<path d="M0 0 C5.78461538 4.18461538 5.78461538 4.18461538 6.875 8.3125 C6.936875 9.6428125 6.936875 9.6428125 7 11 C6.46375 10.71125 5.9275 10.4225 5.375 10.125 C2.64719516 8.83288192 -0.12612718 7.91441408 -3 7 C-3 6.34 -3 5.68 -3 5 C-2.01 4.67 -1.02 4.34 0 4 C0 2.68 0 1.36 0 0 Z " fill="#676767" transform="translate(173,180)"/>
<path d="M0 0 C0 0.66 0 1.32 0 2 C-1.03125 2.4125 -2.0625 2.825 -3.125 3.25 C-6.74548759 4.79110368 -9.7920077 6.73093228 -13 9 C-13.66 8.67 -14.32 8.34 -15 8 C-11.3316372 3.14481395 -6.76728838 -2.86308355 0 0 Z " fill="#D6D6D6" transform="translate(144,150)"/>
<path d="M0 0 C0.66 0.33 1.32 0.66 2 1 C1.67 1.66 1.34 2.32 1 3 C-1.9140625 3.37890625 -1.9140625 3.37890625 -5.625 3.5625 C-10.47861957 3.83984969 -15.2070105 4.20116842 -20 5 C-20 4.34 -20 3.68 -20 3 C-13.59137977 1.82140318 -7.51650082 0.85518887 -1 1 C-0.67 0.67 -0.34 0.34 0 0 Z " fill="#7D7D7D" transform="translate(58,139)"/>
<path d="M0 0 C-1.3697164 3.99500618 -3.25722422 6.80009492 -6 10 C-7.32 9.01 -8.64 8.02 -10 7 C-8.71372289 5.82739389 -7.42080217 4.6620717 -6.125 3.5 C-5.04605469 2.52546875 -5.04605469 2.52546875 -3.9453125 1.53125 C-2 0 -2 0 0 0 Z " fill="#606060" transform="translate(204,75)"/>
<path d="M0 0 C-6.75 2 -6.75 2 -9 2 C-10.62514468 3.45833358 -10.62514468 3.45833358 -12 5 C-12.66 4.67 -13.32 4.34 -14 4 C-14 3.34 -14 2.68 -14 2 C-14.99 1.67 -15.98 1.34 -17 1 C-15.36115792 0.7610022 -13.72209332 0.5234459 -12.08203125 0.29296875 C-10.66191759 0.09314037 -9.2426611 -0.11285301 -7.82421875 -0.32421875 C-2.22485735 -1.11242867 -2.22485735 -1.11242867 0 0 Z " fill="#777777" transform="translate(184,140)"/>
<path d="M0 0 C1.65 0.33 3.3 0.66 5 1 C5 1.66 5 2.32 5 3 C4.01 3.495 4.01 3.495 3 4 C3 5.65 3 7.3 3 9 C2.01 9 1.02 9 0 9 C-0.33 10.32 -0.66 11.64 -1 13 C-1 11.35 -1 9.7 -1 8 C-0.34 7.67 0.32 7.34 1 7 C0.67 4.69 0.34 2.38 0 0 Z " fill="#878787" transform="translate(112,67)"/>
<path d="M0 0 C1 3 1 3 0 5.1875 C-2 7 -2 7 -5.6875 7.25 C-6.780625 7.1675 -7.87375 7.085 -9 7 C-8.34 5.68 -7.68 4.36 -7 3 C-6.67 3.66 -6.34 4.32 -6 5 C-4.05000871 4.80528889 -4.05000871 4.80528889 -2 4 C-0.71563266 2.0162233 -0.71563266 2.0162233 0 0 Z " fill="#070707" transform="translate(128,156)"/>
<path d="M0 0 C0.9075 0.185625 1.815 0.37125 2.75 0.5625 C5.68314324 0.95734621 7.2644657 0.94691572 10 0 C10.33 1.65 10.66 3.3 11 5 C8.69 4.34 6.38 3.68 4 3 C3.67 3.66 3.34 4.32 3 5 C2.87625 4.360625 2.7525 3.72125 2.625 3.0625 C2.315625 2.0415625 2.315625 2.0415625 2 1 C1.34 0.67 0.68 0.34 0 0 Z " fill="#6F6F6F" transform="translate(188,139)"/>
<path d="M0 0 C0.66 0 1.32 0 2 0 C2.33 1.65 2.66 3.3 3 5 C1.02 5.99 1.02 5.99 -1 7 C-1.625 4.625 -1.625 4.625 -2 2 C-1.34 1.34 -0.68 0.68 0 0 Z " fill="#050505" transform="translate(116,121)"/>
<path d="M0 0 C0.33 0 0.66 0 1 0 C1 2.97 1 5.94 1 9 C0.01 8.67 -0.98 8.34 -2 8 C-2.33 8.66 -2.66 9.32 -3 10 C-2.49287967 6.28111761 -1.88391785 3.26545761 0 0 Z " fill="#767676" transform="translate(122,26)"/>
<path d="M0 0 C0.99 0 1.98 0 3 0 C4.0625 1.8125 4.0625 1.8125 5 4 C4.67 4.99 4.34 5.98 4 7 C2.68 6.34 1.36 5.68 0 5 C0.33 4.67 0.66 4.34 1 4 C0.01 3.67 -0.98 3.34 -2 3 C-1 1 -1 1 0 0 Z " fill="#717171" transform="translate(117,155)"/>
<path d="M0 0 C1.32 0.33 2.64 0.66 4 1 C4 2.98 4 4.96 4 7 C4.66 7 5.32 7 6 7 C6 8.65 6 10.3 6 12 C5.67 11.01 5.34 10.02 5 9 C4.01 9 3.02 9 2 9 C2.33 6.69 2.66 4.38 3 2 C2.01 2 1.02 2 0 2 C0 1.34 0 0.68 0 0 Z " fill="#B5B5B5" transform="translate(131,60)"/>
<path d="M0 0 C1.98 0 3.96 0 6 0 C5.67 0.99 5.34 1.98 5 3 C4.67 3 4.34 3 4 3 C3.67 5.64 3.34 8.28 3 11 C2.67 11 2.34 11 2 11 C2 7.7 2 4.4 2 1 C1.34 0.67 0.68 0.34 0 0 Z " fill="#515151" transform="translate(120,163)"/>
<path d="M0 0 C2.29013653 3.4352048 2.17842973 4.985331 2 9 C0.35 7.35 -1.3 5.7 -3 4 C-2.01 2.68 -1.02 1.36 0 0 Z " fill="#272727" transform="translate(118,149)"/>
<path d="M0 0 C0.66 0.33 1.32 0.66 2 1 C1.979375 1.9075 1.95875 2.815 1.9375 3.75 C1.9889755 6.42672588 2.2215017 8.46988052 3 11 C2.34 11 1.68 11 1 11 C-1.42857143 3.57142857 -1.42857143 3.57142857 0 0 Z " fill="#949494" transform="translate(113,119)"/>
<path d="M0 0 C1.32 0 2.64 0 4 0 C3.67 2.31 3.34 4.62 3 7 C2.34 6.67 1.68 6.34 1 6 C0.375 2.9375 0.375 2.9375 0 0 Z " fill="#656565" transform="translate(111,106)"/>
<path d="M0 0 C0.66 0.33 1.32 0.66 2 1 C2 1.99 2 2.98 2 4 C0.02 4.99 0.02 4.99 -2 6 C-2.33 4.35 -2.66 2.7 -3 1 C-2.01 0.67 -1.02 0.34 0 0 Z " fill="#585858" transform="translate(113,82)"/>
<path d="M0 0 C2.64 0.33 5.28 0.66 8 1 C5.06279492 2.52299523 2.0831351 3.80100302 -1 5 C-0.67 3.35 -0.34 1.7 0 0 Z " fill="#4B4B4B" transform="translate(82,142)"/>
<path d="M0 0 C0.66 0.99 1.32 1.98 2 3 C0.6078125 3.1546875 0.6078125 3.1546875 -0.8125 3.3125 C-4.03254358 4.0070192 -5.02579865 4.47740939 -7 7 C-7 6.01 -7 5.02 -7 4 C-4.625 2.25 -4.625 2.25 -2 1 C-1.34 1.33 -0.68 1.66 0 2 C0 1.34 0 0.68 0 0 Z " fill="#A1A1A1" transform="translate(164,98)"/>
<path d="M0 0 C-0.33 0.99 -0.66 1.98 -1 3 C-3.06640625 3.73046875 -3.06640625 3.73046875 -5.5625 4.1875 C-6.38878906 4.34605469 -7.21507812 4.50460938 -8.06640625 4.66796875 C-9.02353516 4.83232422 -9.02353516 4.83232422 -10 5 C-8 2 -8 2 -6 1.375 C-5.34 1.25125 -4.68 1.1275 -4 1 C-2 0 -2 0 0 0 Z " fill="#808080" transform="translate(192,84)"/>
<path d="M0 0 C0 0.66 0 1.32 0 2 C-1.98 2.66 -3.96 3.32 -6 4 C-6.66 3.01 -7.32 2.02 -8 1 C-4.93251126 -0.86240388 -3.40254489 -1.2151946 0 0 Z " fill="#CDCDCD" transform="translate(144,150)"/>
<path d="M0 0 C0.66 0.33 1.32 0.66 2 1 C1.67 3.31 1.34 5.62 1 8 C0.896875 7.360625 0.79375 6.72125 0.6875 6.0625 C0.460625 5.381875 0.23375 4.70125 0 4 C-0.99 3.67 -1.98 3.34 -3 3 C-2.01 2.01 -1.02 1.02 0 0 Z " fill="#838383" transform="translate(136,89)"/>
<path d="M0 0 C2.125 0.375 2.125 0.375 4 1 C2.625 3 2.625 3 1 5 C0.34 5 -0.32 5 -1 5 C-1.33 4.01 -1.66 3.02 -2 2 C-1.34 1.34 -0.68 0.68 0 0 Z " fill="#3F3F3F" transform="translate(192,91)"/>
<path d="M0 0 C2.0625 0.4375 2.0625 0.4375 4 1 C2.33333333 2.66666667 0.66666667 4.33333333 -1 6 C-1.66 5.67 -2.32 5.34 -3 5 C-1.125 1.125 -1.125 1.125 0 0 Z " fill="#6E6E6E" transform="translate(178,88)"/>
<path d="M0 0 C1.65 0.33 3.3 0.66 5 1 C2.82575883 3.50037734 1.26954202 4.43628586 -2 5 C-2 4.01 -2 3.02 -2 2 C-1.34 2 -0.68 2 0 2 C0 1.34 0 0.68 0 0 Z " fill="#5B5B5B" transform="translate(109,170)"/>
<path d="M0 0 C3 0 3 0 5 1 C3.35 2.65 1.7 4.3 0 6 C-1 3 -1 3 0 0 Z " fill="#202020" transform="translate(129,152)"/>
<path d="M0 0 C1.6875 5.0625 1.6875 5.0625 2 7 C1.34 7.66 0.68 8.32 0 9 C0 7.68 0 6.36 0 5 C-0.66 5 -1.32 5 -2 5 C-1.125 1.125 -1.125 1.125 0 0 Z " fill="#B6B6B6" transform="translate(117,137)"/>
<path d="M0 0 C1.32 1.32 2.64 2.64 4 4 C3.67 4.66 3.34 5.32 3 6 C0.5 4.625 0.5 4.625 -2 3 C-2 2.34 -2 1.68 -2 1 C-1.34 0.67 -0.68 0.34 0 0 Z " fill="#646464" transform="translate(81,94)"/>
<path d="M0 0 C2.475 0.99 2.475 0.99 5 2 C4.34 3.32 3.68 4.64 3 6 C1.68 4.68 0.36 3.36 -1 2 C-0.67 1.34 -0.34 0.68 0 0 Z " fill="#8D8D8D" transform="translate(45,75)"/>
<path d="M0 0 C2 1 2 1 2 1 Z " fill="#ECECEC" transform="translate(42,155)"/>
<path d="" fill="#E9E9E9" transform="translate(0,0)"/>
<path d="" fill="#EEEEEE" transform="translate(0,0)"/>
<path d="" fill="#E9E9E9" transform="translate(0,0)"/>
<path d="" fill="#E5E5E5" transform="translate(0,0)"/>
<path d="" fill="#EDEDED" transform="translate(0,0)"/>
<path d="" fill="#EBEBEB" transform="translate(0,0)"/>
<path d="" fill="#E7E7E7" transform="translate(0,0)"/>
<path d="" fill="#EDEDED" transform="translate(0,0)"/>
<path d="" fill="#EEEEEE" transform="translate(0,0)"/>
<path d="" fill="#EBEBEB" transform="translate(0,0)"/>
<path d="" fill="#EDEDED" transform="translate(0,0)"/>
<path d="" fill="#E8E8E8" transform="translate(0,0)"/>
<path d="" fill="#EDEDED" transform="translate(0,0)"/>
<path d="" fill="#EDEDED" transform="translate(0,0)"/>
<path d="" fill="#E7E7E7" transform="translate(0,0)"/>
<path d="" fill="#EDEDED" transform="translate(0,0)"/>
<path d="" fill="#ECECEC" transform="translate(0,0)"/>
<path d="" fill="#E9E9E9" transform="translate(0,0)"/>
<path d="" fill="#E9E9E9" transform="translate(0,0)"/>
<path d="" fill="#EEEEEE" transform="translate(0,0)"/>
<path d="" fill="#EDEDED" transform="translate(0,0)"/>
<path d="" fill="#ECECEC" transform="translate(0,0)"/>
<path d="" fill="#ECECEC" transform="translate(0,0)"/>
<path d="" fill="#EDEDED" transform="translate(0,0)"/>
<path d="" fill="#EAEAEA" transform="translate(0,0)"/>
<path d="" fill="#ECECEC" transform="translate(0,0)"/>
<path d="" fill="#EEEEEE" transform="translate(0,0)"/>
<path d="" fill="#EEEEEE" transform="translate(0,0)"/>
<path d="" fill="#EEEEEE" transform="translate(0,0)"/>
<path d="" fill="#ECECEC" transform="translate(0,0)"/>
<path d="" fill="#E8E8E8" transform="translate(0,0)"/>
<path d="" fill="#EBEBEB" transform="translate(0,0)"/>
<path d="" fill="#EEEEEE" transform="translate(0,0)"/>
<path d="" fill="#E7E7E7" transform="translate(0,0)"/>
<path d="" fill="#EDEDED" transform="translate(0,0)"/>
<path d="" fill="#EEEEEE" transform="translate(0,0)"/>
<path d="" fill="#ECECEC" transform="translate(0,0)"/>
<path d="" fill="#ECECEC" transform="translate(0,0)"/>
<path d="" fill="#EEEEEE" transform="translate(0,0)"/>
<path d="" fill="#EDEDED" transform="translate(0,0)"/>
<path d="" fill="#E9E9E9" transform="translate(0,0)"/>
<path d="" fill="#EDEDED" transform="translate(0,0)"/>
<path d="" fill="#EDEDED" transform="translate(0,0)"/>
<path d="" fill="#ECECEC" transform="translate(0,0)"/>
<path d="" fill="#E4E4E4" transform="translate(0,0)"/>
<path d="" fill="#EEEEEE" transform="translate(0,0)"/>
<path d="" fill="#EEEEEE" transform="translate(0,0)"/>
<path d="" fill="#E9E9E9" transform="translate(0,0)"/>
<path d="" fill="#ECECEC" transform="translate(0,0)"/>
<path d="" fill="#EDEDED" transform="translate(0,0)"/>
<path d="" fill="#EEEEEE" transform="translate(0,0)"/>
<path d="" fill="#E3E3E3" transform="translate(0,0)"/>
<path d="" fill="#E5E5E5" transform="translate(0,0)"/>
<path d="" fill="#ECECEC" transform="translate(0,0)"/>
<path d="" fill="#E6E6E6" transform="translate(0,0)"/>
<path d="" fill="#EDEDED" transform="translate(0,0)"/>
<path d="" fill="#EDEDED" transform="translate(0,0)"/>
<path d="" fill="#E4E4E4" transform="translate(0,0)"/>
<path d="" fill="#EEEEEE" transform="translate(0,0)"/>
<path d="" fill="#EBEBEB" transform="translate(0,0)"/>
<path d="" fill="#ECECEC" transform="translate(0,0)"/>
</svg>
