<?xml version="1.0" encoding="UTF-8"?>
<svg version="1.1" xmlns="http://www.w3.org/2000/svg" width="250" height="250">
<path d="M0 0 C0.92961923 2.78885769 1.08187251 4.26969609 1 7.125 C0.93821664 11.82825834 1.40773035 16.33587649 2 21 C2.66 21 3.32 21 4 21 C4.13277344 21.71027344 4.26554687 22.42054687 4.40234375 23.15234375 C4.66724609 24.53099609 4.66724609 24.53099609 4.9375 25.9375 C5.19853516 27.31228516 5.19853516 27.31228516 5.46484375 28.71484375 C5.77714988 30.95289844 5.77714988 30.95289844 7 32 C7.04092937 34.33297433 7.04241723 36.66705225 7 39 C7.33 39 7.66 39 8 39 C7.95875 39.928125 7.9175 40.85625 7.875 41.8125 C7.72863661 45.15809719 7.72863661 45.15809719 10 48 C9.5625 50.125 9.5625 50.125 9 52 C9.33 52.33 9.66 52.66 10 53 C9.71269945 55.33944736 9.38063221 57.6739143 9 60 C9.66 60 10.32 60 11 60 C10.67 62.31 10.34 64.62 10 67 C10.66 67.33 11.32 67.66 12 68 C11.125 72.75 11.125 72.75 10 75 C11.485 75.99 11.485 75.99 13 77 C12.649375 77.598125 12.29875 78.19625 11.9375 78.8125 C10.66695302 81.10813214 10.66695302 81.10813214 12 84 C11.0625 86.6875 11.0625 86.6875 10 89 C10.66 89 11.32 89 12 89 C12.16822266 87.94232422 12.16822266 87.94232422 12.33984375 86.86328125 C13.06314908 83.72610488 14.19457691 81.09872094 15.5625 78.1875 C16.01753906 77.21167969 16.47257812 76.23585938 16.94140625 75.23046875 C17.46541016 74.12638672 17.46541016 74.12638672 18 73 C18.66 73 19.32 73 20 73 C20 71.35 20 69.7 20 68 C20.99 67.67 21.98 67.34 23 67 C22.67 65.68 22.34 64.36 22 63 C22.639375 62.773125 23.27875 62.54625 23.9375 62.3125 C26.21611948 61.19250904 26.21611948 61.19250904 26.5625 58.8125 C26.706875 57.884375 26.85125 56.95625 27 56 C28.56003345 51.95809514 30.04050528 48.21684208 33 45 C33.66 45 34.32 45 35 45 C35.1546875 43.8553125 35.1546875 43.8553125 35.3125 42.6875 C36.05651197 39.77908957 36.79805587 38.92670112 39 37 C39.33 36.34 39.66 35.68 40 35 C40.99 34.67 41.98 34.34 43 34 C44.29707466 31.15076 44.29707466 31.15076 45.375 27.75 C47.23184924 22.60839011 48.67749887 19.33450087 53 16 C53.99 16.99 53.99 16.99 55 18 C54.34 18 53.68 18 53 18 C52.49061655 20.49840454 51.99236886 22.99823388 51.5 25.5 C51.35691406 26.19609375 51.21382812 26.8921875 51.06640625 27.609375 C50.11572789 32.498578 49.872292 37.01938792 50 42 C50 45 50 45 49.4375 48.0625 C48.72373696 50.92588543 48.72373696 50.92588543 50 53 C49.34 53.99 48.68 54.98 48 56 C48.165 56.66 48.33 57.32 48.5 58 C48.665 58.66 48.83 59.32 49 60 C48.34 60.99 47.68 61.98 47 63 C46.64984951 64.66321482 46.31802943 66.33034549 46 68 C44.80549094 71.4982051 43.33444621 74.13499784 41 77 C41.66 77 42.32 77 43 77 C43 77.66 43 78.32 43 79 C41 80.625 41 80.625 39 82 C39.33 83.32 39.66 84.64 40 86 C38.02 86.99 38.02 86.99 36 88 C36 88.66 36 89.32 36 90 C36.66 90.33 37.32 90.66 38 91 C37.34 91.5775 36.68 92.155 36 92.75 C33.55709077 94.99653977 33.55709077 94.99653977 34 99 C32.68 99.33 31.36 99.66 30 100 C30.226875 100.598125 30.45375 101.19625 30.6875 101.8125 C30.790625 102.534375 30.89375 103.25625 31 104 C29.6875 105.4375 29.6875 105.4375 28 107 C27.67 107.86625 27.34 108.7325 27 109.625 C26.67 110.40875 26.34 111.1925 26 112 C24.515 112.495 24.515 112.495 23 113 C23.33 113.99 23.66 114.98 24 116 C24.78375 115.175 25.5675 114.35 26.375 113.5 C29 111 29 111 31 111 C31 110.34 31 109.68 31 109 C31.78375 108.71125 32.5675 108.4225 33.375 108.125 C36.09671632 107.15087746 36.09671632 107.15087746 38 105 C42.61538462 102 42.61538462 102 45 102 C45.66 101.649375 46.32 101.29875 47 100.9375 C47.66 100.628125 48.32 100.31875 49 100 C49.66 100.33 50.32 100.66 51 101 C51.33 100.01 51.66 99.02 52 98 C52.66 97.896875 53.32 97.79375 54 97.6875 C56.44188189 97.12790207 58.5515765 96.45751528 60.875 95.5625 C70.79691083 91.79584866 81.77451507 88.95338496 92 93 C92 93.33 92 93.66 92 94 C91.32453125 94.04898438 90.6490625 94.09796875 89.953125 94.1484375 C88.61507812 94.26058594 88.61507812 94.26058594 87.25 94.375 C85.92742187 94.47941406 85.92742187 94.47941406 84.578125 94.5859375 C81.96863201 95.00503789 80.23244845 95.60410097 78 97 C76.95355934 98.63790712 75.9601817 100.31008021 75 102 C72.22469638 105.55808156 69.6002672 108.32883401 66 111 C65.0409375 112.2684375 65.0409375 112.2684375 64.0625 113.5625 C61.82967192 116.20129682 60.26094298 117.00360076 57 118 C57 118.66 57 119.32 57 120 C54.03 120.99 54.03 120.99 51 122 C51 122.66 51 123.32 51 124 C48.03 124.495 48.03 124.495 45 125 C45 125.66 45 126.32 45 127 C42.03 127.495 42.03 127.495 39 128 C39 128.66 39 129.32 39 130 C37.35 130.33 35.7 130.66 34 131 C34 131.66 34 132.32 34 133 C33.05125 133.12375 32.1025 133.2475 31.125 133.375 C27.91332809 133.71687177 27.91332809 133.71687177 26 136 C24.47943382 136.59834554 22.93387912 137.13506656 21.375 137.625 C20.55773437 137.88539063 19.74046875 138.14578125 18.8984375 138.4140625 C18.27195312 138.60742188 17.64546875 138.80078125 17 139 C17.80824219 139.32613281 18.61648437 139.65226563 19.44921875 139.98828125 C20.51785156 140.42527344 21.58648437 140.86226562 22.6875 141.3125 C23.74324219 141.74175781 24.79898438 142.17101562 25.88671875 142.61328125 C28.77134102 143.89815064 31.40318686 145.20294749 34 147 C34 147.66 34 148.32 34 149 C34.99 149.33 35.98 149.66 37 150 C37 150.66 37 151.32 37 152 C38.32 152.66 39.64 153.32 41 154 C41 154.66 41 155.32 41 156 C41.99 156.66 42.98 157.32 44 158 C43.67 158.66 43.34 159.32 43 160 C41.6078125 159.2575 41.6078125 159.2575 40.1875 158.5 C37.13472484 156.78710148 37.13472484 156.78710148 34 157 C27.44680851 156.29787234 27.44680851 156.29787234 24 154 C23.67 154.66 23.34 155.32 23 156 C22.401875 155.505 21.80375 155.01 21.1875 154.5 C19.02970006 152.71723582 19.02970006 152.71723582 16 153 C10.50354546 151.56045238 5.88544616 148.8042461 1 146 C0.34 145.67 -0.32 145.34 -1 145 C-1.03758423 146.01984985 -1.03758423 146.01984985 -1.07592773 147.06030273 C-1.19305822 150.18617279 -1.31524656 153.31182628 -1.4375 156.4375 C-1.47681641 157.50677734 -1.51613281 158.57605469 -1.55664062 159.67773438 C-1.80126504 165.83097936 -2.23534 171.88914575 -3 178 C-3.99 178.33 -4.98 178.66 -6 179 C-7.13917218 175.58248347 -7.11338481 172.96512063 -7.09765625 169.36328125 C-7.09282227 167.41518555 -7.09282227 167.41518555 -7.08789062 165.42773438 C-7.07953531 164.05598892 -7.07107037 162.68424413 -7.0625 161.3125 C-7.05748335 159.92903805 -7.05292073 158.54557437 -7.04882812 157.16210938 C-7.03702529 153.77469605 -7.02056019 150.38736967 -7 147 C-8.32 147.33 -9.64 147.66 -11 148 C-11 148.66 -11 149.32 -11 150 C-11.8353125 150.185625 -11.8353125 150.185625 -12.6875 150.375 C-15.0545308 150.9630315 -15.0545308 150.9630315 -17.4375 152 C-20 153 -20 153 -22.5625 153.5 C-25.01319806 153.8735352 -25.01319806 153.8735352 -27 155.125 C-29.64672422 156.28294184 -31.22395662 155.5694448 -34 155 C-34.99 155.66 -35.98 156.32 -37 157 C-39.04705225 157.59739945 -41.11233108 158.13409983 -43.1875 158.625 C-44.27417969 158.88539063 -45.36085937 159.14578125 -46.48046875 159.4140625 C-47.31191406 159.60742188 -48.14335938 159.80078125 -49 160 C-49 158 -49 158 -47.8125 156.75 C-47.214375 156.1725 -46.61625 155.595 -46 155 C-45.13982249 153.94236036 -44.28606328 152.87948046 -43.4375 151.8125 C-42.2309375 150.4203125 -42.2309375 150.4203125 -41 149 C-40.34 149 -39.68 149 -39 149 C-39 148.34 -39 147.68 -39 147 C-36.09451118 144.95830515 -34.59857954 144 -31 144 C-31 143.34 -31 142.68 -31 142 C-28.03 141.01 -25.06 140.02 -22 139 C-22.69867188 138.80664062 -23.39734375 138.61328125 -24.1171875 138.4140625 C-25.02726562 138.15367187 -25.93734375 137.89328125 -26.875 137.625 C-27.77992187 137.36976563 -28.68484375 137.11453125 -29.6171875 136.8515625 C-32 136 -32 136 -34 134 C-36.57061311 133.35232207 -36.57061311 133.35232207 -39 133 C-39 132.34 -39 131.68 -39 131 C-40.051875 130.8453125 -40.051875 130.8453125 -41.125 130.6875 C-44.39137647 129.90640997 -47.0471852 128.57941257 -50 127 C-50 126.34 -50 125.68 -50 125 C-52.97 124.505 -52.97 124.505 -56 124 C-56 123.34 -56 122.68 -56 122 C-56.721875 121.9175 -57.44375 121.835 -58.1875 121.75 C-63.53316159 120.32449024 -67.37621733 116.03792926 -71 112 C-71 111.01 -71 110.02 -71 109 C-72.65 108.67 -74.3 108.34 -76 108 C-76 107.01 -76 106.02 -76 105 C-77.65 104.34 -79.3 103.68 -81 103 C-80.505 101.515 -80.505 101.515 -80 100 C-80.66 100 -81.32 100 -82 100 C-82.99 98.7625 -82.99 98.7625 -84 97.5 C-88.22407099 93.97994084 -91.70960374 94.53773237 -97 95 C-97 94.01 -97 93.02 -97 92 C-78.72301145 89.70211943 -78.72301145 89.70211943 -71 94 C-68.35833673 95.11227927 -65.71995134 96.09334955 -63 97 C-60 98 -60 98 -57.3125 99.125 C-54.94444105 100.17694605 -54.94444105 100.17694605 -52 100 C-51.01 101.485 -51.01 101.485 -50 103 C-49.01 103 -48.02 103 -47 103 C-44.95912192 104.26987969 -42.96374635 105.61382611 -41 107 C-39.9275 107.70125 -38.855 108.4025 -37.75 109.125 C-35 111 -35 111 -33 113 C-32.34 113 -31.68 113 -31 113 C-31.515625 112.401875 -32.03125 111.80375 -32.5625 111.1875 C-33.036875 110.465625 -33.51125 109.74375 -34 109 C-33.505 107.515 -33.505 107.515 -33 106 C-33.825 105.566875 -34.65 105.13375 -35.5 104.6875 C-36.325 104.130625 -37.15 103.57375 -38 103 C-38 102.01 -38 101.02 -38 100 C-38.99 99.34 -39.98 98.68 -41 98 C-40.505 96.02 -40.505 96.02 -40 94 C-41.32 93.01 -42.64 92.02 -44 91 C-43.505 89.515 -43.505 89.515 -43 88 C-43.7115625 87.443125 -43.7115625 87.443125 -44.4375 86.875 C-46.52205802 84.37353038 -46.64621491 82.18406582 -47 79 C-47.99 78.67 -48.98 78.34 -50 78 C-49.01 76.515 -49.01 76.515 -48 75 C-48.495 74.5875 -48.99 74.175 -49.5 73.75 C-51 72 -51 72 -51 68 C-51.96432076 66.31243867 -52.96210419 64.64333504 -54 63 C-54 62.34 -54 61.68 -54 61 C-54.31951807 59.41382102 -54.65508701 57.83085122 -55 56.25 C-55.78553129 52.42191796 -56.19613346 48.92266928 -56 45 C-56 44.34 -56 43.68 -56 43 C-55.95875 41.865625 -55.9175 40.73125 -55.875 39.5625 C-55.89001001 31.29198322 -57.84706549 23.59570588 -61 16 C-57.86279128 16.58822664 -57.15858091 16.81168517 -55 19.375 C-52.61896493 23.1939935 -51.37013817 27.4365992 -50.02734375 31.70703125 C-49.68832031 32.46371094 -49.34929687 33.22039062 -49 34 C-48.01 34.33 -47.02 34.66 -46 35 C-45.30062468 36.31647119 -44.63270867 37.65022151 -44 39 C-43.01 39.495 -43.01 39.495 -42 40 C-42 41.32 -42 42.64 -42 44 C-41.01 44.33 -40.02 44.66 -39 45 C-35.03588335 49.83126717 -33.56221386 55.01151354 -32 61 C-31.34 61 -30.68 61 -30 61 C-29.60167969 62.06541016 -29.60167969 62.06541016 -29.1953125 63.15234375 C-28.84210938 64.07144531 -28.48890625 64.99054688 -28.125 65.9375 C-27.77695313 66.85402344 -27.42890625 67.77054687 -27.0703125 68.71484375 C-26.2180914 71.14941056 -26.2180914 71.14941056 -24 72 C-21.42286185 77.47641857 -19.3631016 83.09322642 -18 89 C-17.34 88.34 -16.68 87.68 -16 87 C-16.99 83.535 -16.99 83.535 -18 80 C-17.34 80 -16.68 80 -16 80 C-16 79.01 -16 78.02 -16 77 C-16.66 76.67 -17.32 76.34 -18 76 C-17.68160156 75.32324219 -17.36320312 74.64648438 -17.03515625 73.94921875 C-15.8218072 70.49231863 -15.61849095 67.46697693 -15.4375 63.8125 C-15.09801634 57.19603267 -15.09801634 57.19603267 -14 55 C-13.72579082 52.17956274 -13.5538093 49.35946953 -13.37890625 46.53125 C-13 44 -13 44 -11 42 C-10.83312552 39.41645782 -10.83312552 39.41645782 -11 37 C-10.34 37 -9.68 37 -9 37 C-9 33.7 -9 30.4 -9 27 C-8.01 27 -7.02 27 -6 27 C-6 25.02 -6 23.04 -6 21 C-5.34 21 -4.68 21 -4 21 C-4.05220703 19.83984375 -4.05220703 19.83984375 -4.10546875 18.65625 C-4.27929276 11.96816416 -3.86227076 7.06801401 -1 1 C-0.67 0.67 -0.34 0.34 0 0 Z " fill="#131313" transform="translate(127,32)"/>
<path d="M0 0 C9.21605839 3.28029197 9.21605839 3.28029197 13 6 C13 6.66 13 7.32 13 8 C13.99 8.33 14.98 8.66 16 9 C16 9.66 16 10.32 16 11 C17.32 11.66 18.64 12.32 20 13 C20 13.66 20 14.32 20 15 C20.99 15.66 21.98 16.32 23 17 C22.67 17.66 22.34 18.32 22 19 C20.6078125 18.2575 20.6078125 18.2575 19.1875 17.5 C16.13472484 15.78710148 16.13472484 15.78710148 13 16 C10.66435067 15.68330179 8.3306218 15.35179197 6 15 C6 11.66666667 6 8.33333333 6 5 C5.38125 4.690625 4.7625 4.38125 4.125 4.0625 C2.75 3.375 1.375 2.6875 0 2 C0 1.34 0 0.68 0 0 Z " fill="#4A4A4A" transform="translate(148,173)"/>
<path d="M0 0 C3.2340653 0.59539277 3.87504524 0.8529944 6.125 3.5 C8.32724823 7.61086336 9.22907285 11.43529974 10 16 C9.01 15.34 8.02 14.68 7 14 C6.67 15.65 6.34 17.3 6 19 C4.49638756 16.49397927 3.95755851 14.68472037 3.5625 11.75 C2.91824407 7.45496046 1.62147303 4.01843315 0 0 Z " fill="#424242" transform="translate(66,48)"/>
<path d="M0 0 C0.33 0.66 0.66 1.32 1 2 C0.00419922 2.07347656 0.00419922 2.07347656 -1.01171875 2.1484375 C-7.7112236 2.71125812 -7.7112236 2.71125812 -14 5 C-14.66 4.34 -15.32 3.68 -16 3 C-18.68839385 2.73008094 -21.29141936 2.91262643 -24 3 C-23.67 2.34 -23.34 1.68 -23 1 C-15.66132045 -0.8927816 -7.43392296 -1.9696719 0 0 Z " fill="#6F6F6F" transform="translate(218,124)"/>
<path d="M0 0 C0.99 0 1.98 0 3 0 C3.33 7.59 3.66 15.18 4 23 C4.66 23.33 5.32 23.66 6 24 C5.67 26.97 5.34 29.94 5 33 C3.515 33.495 3.515 33.495 2 34 C0.86082782 30.58248347 0.88661519 27.96512063 0.90234375 24.36328125 C0.90556641 23.06455078 0.90878906 21.76582031 0.91210938 20.42773438 C0.92046469 19.05598892 0.92892963 17.68424413 0.9375 16.3125 C0.94251665 14.92903805 0.94707927 13.54557437 0.95117188 12.16210938 C0.96297471 8.77469605 0.97943981 5.38736967 1 2 C0.34 1.67 -0.32 1.34 -1 1 C-0.67 0.67 -0.34 0.34 0 0 Z " fill="#656565" transform="translate(119,177)"/>
<path d="M0 0 C0.66 0.66 1.32 1.32 2 2 C1.34 2 0.68 2 0 2 C-0.99 7.28 -1.98 12.56 -3 18 C-3.33 18 -3.66 18 -4 18 C-4.33 16.02 -4.66 14.04 -5 12 C-5.99 12.99 -6.98 13.98 -8 15 C-6.47275469 8.60543632 -5.18720934 4.20584541 0 0 Z " fill="#515151" transform="translate(180,48)"/>
<path d="M0 0 C0.66 0 1.32 0 2 0 C1.35455571 3.48539917 -0.10134397 6.02819057 -2 9 C-1.34 9.33 -0.68 9.66 0 10 C-4.455 11.485 -4.455 11.485 -9 13 C-9.33 12.34 -9.66 11.68 -10 11 C-9.608125 10.62875 -9.21625 10.2575 -8.8125 9.875 C-7.23614604 8.24428901 -5.85106854 6.58155175 -4.4375 4.8125 C-3.633125 3.884375 -2.82875 2.95625 -2 2 C-1.34 2 -0.68 2 0 2 C0 1.34 0 0.68 0 0 Z " fill="#747474" transform="translate(88,179)"/>
<path d="M0 0 C2.625 0.375 2.625 0.375 5 1 C4.979375 1.78375 4.95875 2.5675 4.9375 3.375 C4.81315937 5.98114961 4.81315937 5.98114961 6 8 C1.18569279 8.56638908 -1.20307814 6.82561627 -5 4 C-4.01 3.34 -3.02 2.68 -2 2 C-1.34 1.34 -0.68 0.68 0 0 Z " fill="#292929" transform="translate(137,176)"/>
<path d="M0 0 C0.97582031 0.10183594 1.95164062 0.20367187 2.95703125 0.30859375 C3.69308594 0.39238281 4.42914063 0.47617188 5.1875 0.5625 C4.1975 2.0475 4.1975 2.0475 3.1875 3.5625 C2.8575 4.2225 2.5275 4.8825 2.1875 5.5625 C1.1975 4.9025 0.2075 4.2425 -0.8125 3.5625 C-3.32834891 3.32099227 -3.32834891 3.32099227 -6 3.4375 C-7.35158203 3.46457031 -7.35158203 3.46457031 -8.73046875 3.4921875 C-9.76107422 3.52699219 -9.76107422 3.52699219 -10.8125 3.5625 C-10.8125 2.5725 -10.8125 1.5825 -10.8125 0.5625 C-7.01982808 -0.3735342 -3.87575435 -0.42026252 0 0 Z " fill="#7D7D7D" transform="translate(40.8125,123.4375)"/>
<path d="M0 0 C1.55078125 1.640625 1.55078125 1.640625 3 4 C2.85546875 6.796875 2.85546875 6.796875 2.1875 9.75 C1.86845703 11.22726563 1.86845703 11.22726563 1.54296875 12.734375 C1.36378906 13.48203125 1.18460937 14.2296875 1 15 C0.34 15 -0.32 15 -1 15 C-0.67 17.31 -0.34 19.62 0 22 C-0.66 22 -1.32 22 -2 22 C-2 23.65 -2 25.3 -2 27 C-2.33 27 -2.66 27 -3 27 C-2.85936865 24.70800823 -2.71234057 22.41640814 -2.5625 20.125 C-2.48128906 18.84882812 -2.40007812 17.57265625 -2.31640625 16.2578125 C-2 13 -2 13 -1 11 C-0.7724985 9.12943209 -0.59037189 7.25314042 -0.4375 5.375 C-0.31181641 3.87066406 -0.31181641 3.87066406 -0.18359375 2.3359375 C-0.12300781 1.56507812 -0.06242187 0.79421875 0 0 Z " fill="#7D7D7D" transform="translate(114,76)"/>
<path d="M0 0 C0 4.76995305 -0.96096686 7.30030748 -4 11 C-3.34 11 -2.68 11 -2 11 C-2 11.66 -2 12.32 -2 13 C-2.99 13.33 -3.98 13.66 -5 14 C-5.8125 12 -5.8125 12 -6 9 C-4.43657556 5.78864168 -2.54070564 2.54070564 0 0 Z " fill="#727272" transform="translate(172,98)"/>
<path d="M0 0 C2.75 0.25 2.75 0.25 5 1 C5 1.66 5 2.32 5 3 C3.02 3.66 1.04 4.32 -1 5 C-1 5.66 -1 6.32 -1 7 C-1.66 7 -2.32 7 -3 7 C-3.33 6.01 -3.66 5.02 -4 4 C-2.3125 1.9375 -2.3125 1.9375 0 0 Z " fill="#646464" transform="translate(179,149)"/>
<path d="M0 0 C-2 2 -2 2 -4.4375 2.4375 C-7.04978821 2.76197181 -7.04978821 2.76197181 -8.5 4.5625 C-10 6 -10 6 -12.6875 6.1875 C-13.8321875 6.0946875 -13.8321875 6.0946875 -15 6 C-13.6875 4.5 -13.6875 4.5 -12 3 C-11.01 3 -10.02 3 -9 3 C-9 2.34 -9 1.68 -9 1 C-5.57367167 -0.61798838 -3.61944899 -1.34053666 0 0 Z " fill="#909090" transform="translate(105,173)"/>
<path d="M0 0 C1.32 0.33 2.64 0.66 4 1 C4 1.66 4 2.32 4 3 C3.34 3 2.68 3 2 3 C1.67 3.66 1.34 4.32 1 5 C0.05125 4.979375 -0.8975 4.95875 -1.875 4.9375 C-4.90666283 4.77448174 -4.90666283 4.77448174 -7 6 C-6.34 4.68 -5.68 3.36 -5 2 C-3.68 2.33 -2.36 2.66 -1 3 C-0.67 2.01 -0.34 1.02 0 0 Z " fill="#616161" transform="translate(179,130)"/>
<path d="M0 0 C2 3 2 3 2 5 C1.34 5 0.68 5 0 5 C0.33 5.99 0.66 6.98 1 8 C0.67 8.66 0.34 9.32 0 10 C-1.98 9.34 -3.96 8.68 -6 8 C-5.67 7.01 -5.34 6.02 -5 5 C-4.67 5.66 -4.34 6.32 -4 7 C-3.34 7 -2.68 7 -2 7 C-1.855625 6.21625 -1.71125 5.4325 -1.5625 4.625 C-1 2 -1 2 0 0 Z " fill="#8D8D8D" transform="translate(141,114)"/>
<path d="M0 0 C1.65 0.99 3.3 1.98 5 3 C4.34 4.98 3.68 6.96 3 9 C2.01 8.67 1.02 8.34 0 8 C0 7.34 0 6.68 0 6 C-0.185625 5.34 -0.37125 4.68 -0.5625 4 C-1 2 -1 2 0 0 Z " fill="#454545" transform="translate(73,87)"/>
<path d="M0 0 C2.475 0.99 2.475 0.99 5 2 C4.34 3.32 3.68 4.64 3 6 C3.99 7.485 3.99 7.485 5 9 C3.68 8.34 2.36 7.68 1 7 C1 6.34 1 5.68 1 5 C0.01 4.67 -0.98 4.34 -2 4 C-1.34 2.68 -0.68 1.36 0 0 Z " fill="#767676" transform="translate(79,106)"/>
<path d="M0 0 C0.33 0.66 0.66 1.32 1 2 C3.01669827 3.13350534 3.01669827 3.13350534 5 4 C5 4.66 5 5.32 5 6 C5.99 6.66 6.98 7.32 8 8 C7.67 8.66 7.34 9.32 7 10 C3.535 8.02 3.535 8.02 0 6 C0.66 5.67 1.32 5.34 2 5 C1.34 4.67 0.68 4.34 0 4 C0 2.68 0 1.36 0 0 Z " fill="#797979" transform="translate(163,182)"/>
<path d="M0 0 C1.75 0.125 1.75 0.125 4 1 C6.3125 3.875 6.3125 3.875 8 7 C7.67 7.99 7.34 8.98 7 10 C6.67 9.34 6.34 8.68 6 8 C3.97536745 7.34786708 3.97536745 7.34786708 2 7 C1.855625 6.401875 1.71125 5.80375 1.5625 5.1875 C1.1127561 3.43849596 0.57107659 1.71322977 0 0 Z " fill="#848484" transform="translate(66,48)"/>
<path d="M0 0 C0.33 0 0.66 0 1 0 C0.25 6.625 0.25 6.625 -2 10 C-2.99 9.67 -3.98 9.34 -5 9 C-4.1875 6.5625 -4.1875 6.5625 -3 4 C-2.01 3.67 -1.02 3.34 0 3 C0 2.01 0 1.02 0 0 Z " fill="#676767" transform="translate(162,74)"/>
<path d="M0 0 C0.99 0.33 1.98 0.66 3 1 C2.814375 1.94875 2.62875 2.8975 2.4375 3.875 C1.71313368 6.89868793 1.71313368 6.89868793 3 9 C2.34 9.66 1.68 10.32 1 11 C-0.62950412 6.87831311 -1.26264601 4.29299643 0 0 Z " fill="#757575" transform="translate(174,76)"/>
<path d="M0 0 C0.99 0 1.98 0 3 0 C3 0.66 3 1.32 3 2 C2.34 2 1.68 2 1 2 C1.33 4.31 1.66 6.62 2 9 C1.34 9 0.68 9 0 9 C0 10.65 0 12.3 0 14 C-0.33 14 -0.66 14 -1 14 C-0.67 9.38 -0.34 4.76 0 0 Z " fill="#888888" transform="translate(112,89)"/>
<path d="M0 0 C0.66 0 1.32 0 2 0 C2 1.98 2 3.96 2 6 C0.35 6 -1.3 6 -3 6 C-3 5.34 -3 4.68 -3 4 C-2.34 4 -1.68 4 -1 4 C-0.67 2.68 -0.34 1.36 0 0 Z " fill="#838383" transform="translate(136,124)"/>
<path d="M0 0 C0.66 0.66 1.32 1.32 2 2 C1.34 2 0.68 2 0 2 C-0.33 3.32 -0.66 4.64 -1 6 C-2.65 6 -4.3 6 -6 6 C-4.13216429 3.19824644 -2.69725519 1.88807863 0 0 Z " fill="#696969" transform="translate(169,134)"/>
<path d="M0 0 C1 2 2 4 3 6 C2.0625 8.125 2.0625 8.125 1 10 C1 8.68 1 7.36 1 6 C0.34 6 -0.32 6 -1 6 C-1 4.68 -1 3.36 -1 2 C-1.66 1.67 -2.32 1.34 -3 1 C-2.01 0.67 -1.02 0.34 0 0 Z " fill="#707070" transform="translate(134,74)"/>
<path d="M0 0 C0.33 0 0.66 0 1 0 C1 1.65 1 3.3 1 5 C1.66 5 2.32 5 3 5 C3.33 7.31 3.66 9.62 4 12 C3.01 12 2.02 12 1 12 C1.33 10.02 1.66 8.04 2 6 C1.34 6 0.68 6 0 6 C0 4.02 0 2.04 0 0 Z " fill="#C2C2C2" transform="translate(128,48)"/>
<path d="M0 0 C0.66 0.66 1.32 1.32 2 2 C1.34 2 0.68 2 0 2 C-0.33 3.65 -0.66 5.3 -1 7 C-1.99 7 -2.98 7 -4 7 C-4 4 -4 4 -2 1.8125 C-1.34 1.214375 -0.68 0.61625 0 0 Z " fill="#969696" transform="translate(180,48)"/>
<path d="M0 0 C2.875 0.3125 2.875 0.3125 6 1 C6.66 1.99 7.32 2.98 8 4 C4.23312136 4 3.08809695 3.76462683 0 2 C0 1.34 0 0.68 0 0 Z " fill="#B2B2B2" transform="translate(92,145)"/>
<path d="M0 0 C2 1 2 1 2 1 Z " fill="#EBEBEB" transform="translate(172,186)"/>
<path d="M0 0 C2 1 2 1 2 1 Z " fill="#ECECEC" transform="translate(164,165)"/>
<path d="" fill="#ECECEC" transform="translate(0,0)"/>
<path d="" fill="#EBEBEB" transform="translate(0,0)"/>
<path d="" fill="#EBEBEB" transform="translate(0,0)"/>
<path d="" fill="#EDEDED" transform="translate(0,0)"/>
<path d="" fill="#E7E7E7" transform="translate(0,0)"/>
<path d="" fill="#EDEDED" transform="translate(0,0)"/>
<path d="" fill="#EBEBEB" transform="translate(0,0)"/>
<path d="" fill="#EDEDED" transform="translate(0,0)"/>
<path d="" fill="#E8E8E8" transform="translate(0,0)"/>
<path d="" fill="#EEEEEE" transform="translate(0,0)"/>
<path d="" fill="#E9E9E9" transform="translate(0,0)"/>
<path d="" fill="#E9E9E9" transform="translate(0,0)"/>
<path d="" fill="#EAEAEA" transform="translate(0,0)"/>
<path d="" fill="#EBEBEB" transform="translate(0,0)"/>
<path d="" fill="#EEEEEE" transform="translate(0,0)"/>
<path d="" fill="#EEEEEE" transform="translate(0,0)"/>
<path d="" fill="#EEEEEE" transform="translate(0,0)"/>
<path d="" fill="#DCDCDC" transform="translate(0,0)"/>
<path d="" fill="#E5E5E5" transform="translate(0,0)"/>
<path d="" fill="#E9E9E9" transform="translate(0,0)"/>
<path d="" fill="#EEEEEE" transform="translate(0,0)"/>
<path d="" fill="#ECECEC" transform="translate(0,0)"/>
<path d="" fill="#EBEBEB" transform="translate(0,0)"/>
<path d="" fill="#EEEEEE" transform="translate(0,0)"/>
<path d="" fill="#ECECEC" transform="translate(0,0)"/>
<path d="" fill="#ECECEC" transform="translate(0,0)"/>
<path d="" fill="#E7E7E7" transform="translate(0,0)"/>
<path d="" fill="#E9E9E9" transform="translate(0,0)"/>
<path d="" fill="#E8E8E8" transform="translate(0,0)"/>
<path d="" fill="#E5E5E5" transform="translate(0,0)"/>
<path d="" fill="#EEEEEE" transform="translate(0,0)"/>
<path d="" fill="#ECECEC" transform="translate(0,0)"/>
<path d="" fill="#E9E9E9" transform="translate(0,0)"/>
<path d="" fill="#EDEDED" transform="translate(0,0)"/>
<path d="" fill="#EBEBEB" transform="translate(0,0)"/>
<path d="" fill="#E9E9E9" transform="translate(0,0)"/>
<path d="" fill="#E8E8E8" transform="translate(0,0)"/>
<path d="" fill="#ECECEC" transform="translate(0,0)"/>
<path d="" fill="#EBEBEB" transform="translate(0,0)"/>
<path d="" fill="#ECECEC" transform="translate(0,0)"/>
<path d="" fill="#ECECEC" transform="translate(0,0)"/>
<path d="" fill="#EBEBEB" transform="translate(0,0)"/>
<path d="" fill="#ECECEC" transform="translate(0,0)"/>
<path d="" fill="#ECECEC" transform="translate(0,0)"/>
<path d="" fill="#EBEBEB" transform="translate(0,0)"/>
<path d="" fill="#ECECEC" transform="translate(0,0)"/>
<path d="" fill="#EDEDED" transform="translate(0,0)"/>
<path d="" fill="#EDEDED" transform="translate(0,0)"/>
<path d="" fill="#EEEEEE" transform="translate(0,0)"/>
<path d="" fill="#EEEEEE" transform="translate(0,0)"/>
<path d="" fill="#EDEDED" transform="translate(0,0)"/>
<path d="" fill="#E5E5E5" transform="translate(0,0)"/>
<path d="" fill="#ECECEC" transform="translate(0,0)"/>
<path d="" fill="#E9E9E9" transform="translate(0,0)"/>
<path d="" fill="#EEEEEE" transform="translate(0,0)"/>
</svg>
