<?xml version="1.0" encoding="UTF-8"?>
<svg version="1.1" xmlns="http://www.w3.org/2000/svg" width="250" height="250">
<path d="M0 0 C0.33 0 0.66 0 1 0 C1.39832031 1.71509766 1.39832031 1.71509766 1.8046875 3.46484375 C2.16102453 4.95583291 2.51781904 6.44671279 2.875 7.9375 C3.13603516 9.06961914 3.13603516 9.06961914 3.40234375 10.22460938 C3.87244065 12.16593545 4.4304297 14.08549544 5 16 C5.66 16.33 6.32 16.66 7 17 C7.4140625 19.06640625 7.4140625 19.06640625 7.625 21.5625 C7.73714844 22.80193359 7.73714844 22.80193359 7.8515625 24.06640625 C7.92503906 25.02353516 7.92503906 25.02353516 8 26 C8.66 26 9.32 26 10 26 C10.12375 27.11375 10.2475 28.2275 10.375 29.375 C10.6465813 33.03103677 10.6465813 33.03103677 13 35 C13.125 38.125 13.125 38.125 13 41 C13.66 41 14.32 41 15 41 C15.19436491 43.45796853 15.3807742 45.91609294 15.5625 48.375 C15.61857422 49.07367188 15.67464844 49.77234375 15.73242188 50.4921875 C16.11328125 55.7734375 16.11328125 55.7734375 15 58 C15.99 57.67 16.98 57.34 18 57 C18 66.375 18 66.375 17.5 70.6875 C17.4071875 71.49574219 17.314375 72.30398437 17.21875 73.13671875 C17.1465625 73.75160156 17.074375 74.36648437 17 75 C17.66 75 18.32 75 19 75 C18.54177532 78.46941546 18.10868317 81.67395049 17 85 C18.96756452 84.96877057 18.96756452 84.96877057 21 84 C21.268125 83.113125 21.53625 82.22625 21.8125 81.3125 C23.24946406 77.30412658 25.05884456 76.08569116 28.3125 73.5234375 C30.68755063 71.37929457 31.81259241 68.93359521 33 66 C34.485 66.495 34.485 66.495 36 67 C36.33 65.35 36.66 63.7 37 62 C37.99 61.67 38.98 61.34 40 61 C41.01187895 59.34051852 42.0126546 57.67419438 43 56 C43.66 56 44.32 56 45 56 C45.45375 55.38125 45.9075 54.7625 46.375 54.125 C48.19180361 51.74917989 49.30014029 51.19993765 52 50 C58.97109347 46.19758538 63.62100113 42.79499825 68 36 C68.66 35.67 69.32 35.34 70 35 C69.68113923 39.14518995 68.57325143 41.89384584 66.4375 45.375 C63.75430112 49.94181987 63.65117565 52.76763474 64 58 C63.4 62.6 63.4 62.6 61 65 C61.33 65.99 61.66 66.98 62 68 C61.1875 69.875 61.1875 69.875 60 72 C58.87690405 74.66735289 57.91027905 77.29308844 57.0625 80.0625 C56.03273017 82.90951071 54.81875575 84.62770989 53 87 C52.64830932 88.32860925 52.31229724 89.66158328 52 91 C51.34 91.66 50.68 92.32 50 93 C49.690625 93.66 49.38125 94.32 49.0625 95 C48 97 48 97 45 99 C45 100.32 45 101.64 45 103 C43.1875 105.0625 43.1875 105.0625 41 107 C40.525625 107.556875 40.05125 108.11375 39.5625 108.6875 C37.49373756 110.42526045 35.63840503 110.64345878 33 111 C33.33 111.99 33.66 112.98 34 114 C33.67 114.66 33.34 115.32 33 116 C35.04190981 115.85761163 37.08352045 115.71092972 39.125 115.5625 C40.26195312 115.48128906 41.39890625 115.40007812 42.5703125 115.31640625 C45.90607859 115.06434817 45.90607859 115.06434817 48.78125 114.46875 C53.31976989 113.8078005 57.79596704 113.89504106 62.375 113.9375 C63.30183594 113.94201172 64.22867188 113.94652344 65.18359375 113.95117188 C67.45579709 113.96288426 69.72786388 113.97928628 72 114 C72 114.66 72 115.32 72 116 C78.27 116 84.54 116 91 116 C87.25343737 119.74656263 86.50943945 120.47331322 81.8125 121.625 C79.21408021 122.23582038 79.21408021 122.23582038 77 123 C76.67 123.66 76.34 124.32 76 125 C72.71675094 127.28003407 69.95371299 128.43518386 66 129 C66 129.66 66 130.32 66 131 C64.6078125 131.433125 64.6078125 131.433125 63.1875 131.875 C59.90208333 132.8875 59.90208333 132.8875 57 135 C54.3125 135.125 54.3125 135.125 52 135 C52 135.66 52 136.32 52 137 C50.3603125 136.9690625 50.3603125 136.9690625 48.6875 136.9375 C45.05615809 136.81455548 45.05615809 136.81455548 42 138 C40.68 138 39.36 138 38 138 C41.67557852 142.00972202 45.18966896 144.45335415 50 147 C49.34 147.66 48.68 148.32 48 149 C46.35929439 148.79650163 44.71905104 148.57965878 43.09082031 148.29296875 C39.20453841 147.74841734 35.29070804 147.93881706 31.375 148 C18.68112741 148.19649958 18.68112741 148.19649958 12.5625 144.75 C11.84191406 144.35296875 11.12132812 143.9559375 10.37890625 143.546875 C7.40742569 141.61468074 4.72291601 139.26909668 2 137 C2 145.25 2 153.5 2 162 C0.68 162 -0.64 162 -2 162 C-2.33 154.08 -2.66 146.16 -3 138 C-5.64 139.98 -8.28 141.96 -11 144 C-19.17050277 149.26543512 -29.4560344 148.05093596 -38.8046875 147.96875 C-42.31953259 148.00312501 -45.55451833 148.34371778 -49 149 C-49 148.01 -49 147.02 -49 146 C-47.9275 145.4225 -46.855 144.845 -45.75 144.25 C-42.6973471 142.51624176 -40.35402607 140.6365092 -38 138 C-43.0247239 137.37470103 -47.92528427 136.86987908 -53 137 C-53 136.67 -53 136.34 -53 136 C-53.845625 135.731875 -54.69125 135.46375 -55.5625 135.1875 C-59.13854067 133.9521405 -62.53860908 132.523012 -66 131 C-66 130.34 -66 129.68 -66 129 C-67.65 129 -69.3 129 -71 129 C-71.33 128.01 -71.66 127.02 -72 126 C-73.32303717 125.6278958 -74.65737935 125.29369827 -76 125 C-76.33 124.34 -76.66 123.68 -77 123 C-79.16072227 122.21376109 -81.35490875 121.51798774 -83.5625 120.875 C-84.76003906 120.52179688 -85.95757812 120.16859375 -87.19140625 119.8046875 C-88.11824219 119.53914063 -89.04507813 119.27359375 -90 119 C-90 118.34 -90 117.68 -90 117 C-90.66 116.67 -91.32 116.34 -92 116 C-85.4 116 -78.8 116 -72 116 C-72 115.34 -72 114.68 -72 114 C-44.625 114 -44.625 114 -38.3125 115 C-36.54326172 115.2784375 -36.54326172 115.2784375 -34.73828125 115.5625 C-33.83464844 115.706875 -32.93101563 115.85125 -32 116 C-33.33894802 112.77710501 -34.42627036 111.44996147 -37.5625 109.9375 C-41 108 -41 108 -42 105 C-42.763125 104.2575 -43.52625 103.515 -44.3125 102.75 C-47.33112252 99.66117696 -48.98940104 96.79779804 -51 93 C-50.67 92.67 -50.34 92.34 -50 92 C-50.66 91.401875 -51.32 90.80375 -52 90.1875 C-54 88 -54 88 -54 85 C-54.66 84.175 -55.32 83.35 -56 82.5 C-58 80 -58 80 -58 77 C-59.23414326 74.3651682 -60.61795523 71.83515579 -62.00390625 69.27734375 C-62.49697266 68.15005859 -62.49697266 68.15005859 -63 67 C-62.67 66.34 -62.34 65.68 -62 65 C-62.63028587 63.31923769 -63.29788106 61.65204456 -64 60 C-64 59.34 -64 58.68 -64 58 C-64.185625 57.360625 -64.37125 56.72125 -64.5625 56.0625 C-65 54 -65 54 -64 51 C-65.41212957 47.86242461 -67.08041552 44.91764436 -68.75 41.91015625 C-70 39 -70 39 -69.6875 36.62109375 C-69.460625 36.08613281 -69.23375 35.55117187 -69 35 C-68.34 36.010625 -67.68 37.02125 -67 38.0625 C-62.93210282 43.74831083 -57.80900046 48.91947208 -51 51 C-47.72901926 52.40184889 -47.07819897 52.88270155 -45 56 C-44.34 56 -43.68 56 -43 56 C-39.59238222 59.05811852 -37.30845509 62.0856631 -35 66 C-34.29875 66.70125 -33.5975 67.4025 -32.875 68.125 C-31 70 -31 70 -30 73 C-29.01 73.33 -28.02 73.66 -27 74 C-23.36880124 76.9709808 -22.45492491 79.63522527 -21 84 C-19.515 84.495 -19.515 84.495 -18 85 C-18.12568359 83.82630859 -18.12568359 83.82630859 -18.25390625 82.62890625 C-18.40666016 81.11103516 -18.40666016 81.11103516 -18.5625 79.5625 C-18.71912109 78.04849609 -18.71912109 78.04849609 -18.87890625 76.50390625 C-18.93884766 75.26447266 -18.93884766 75.26447266 -19 74 C-18.67 73.67 -18.34 73.34 -18 73 C-17.92680379 70.30345146 -17.90757463 67.63308542 -17.9375 64.9375 C-17.94201172 64.17888672 -17.94652344 63.42027344 -17.95117188 62.63867188 C-17.9629932 60.75908129 -17.98092922 58.87953101 -18 57 C-17.67 57 -17.34 57 -17 57 C-16.34 51.72 -15.68 46.44 -15 41 C-14.34 41 -13.68 41 -13 41 C-13 38.69 -13 36.38 -13 34 C-12.34 33.67 -11.68 33.34 -11 33 C-10.59270772 30.67843403 -10.25561323 28.3431213 -10 26 C-9.34 26 -8.68 26 -8 26 C-7.92652344 25.04287109 -7.92652344 25.04287109 -7.8515625 24.06640625 C-7.77679688 23.24011719 -7.70203125 22.41382812 -7.625 21.5625 C-7.55539063 20.73878906 -7.48578125 19.91507813 -7.4140625 19.06640625 C-7.20910156 18.04353516 -7.20910156 18.04353516 -7 17 C-6.01 16.505 -6.01 16.505 -5 16 C-4.34 16.33 -3.68 16.66 -3 17 C-3.02320312 16.34773438 -3.04640625 15.69546875 -3.0703125 15.0234375 C-3.17546966 9.93082655 -3.07402327 5.75805339 -1 1 C-0.67 0.67 -0.34 0.34 0 0 Z " fill="#0D0D0D" transform="translate(125,43)"/>
<path d="M0 0 C-2.31 0.33 -4.62 0.66 -7 1 C-7 1.66 -7 2.32 -7 3 C-7.99 3 -8.98 3 -10 3 C-9.896875 4.27875 -9.79375 5.5575 -9.6875 6.875 C-9.62949219 7.59429687 -9.57148437 8.31359375 -9.51171875 9.0546875 C-9.12606964 11.39519216 -9.12606964 11.39519216 -6 13 C-6.92941406 12.98839844 -7.85882813 12.97679687 -8.81640625 12.96484375 C-17.95709317 12.88246463 -17.95709317 12.88246463 -27 14 C-27 13.01 -27 12.02 -27 11 C-25.9275 10.4225 -24.855 9.845 -23.75 9.25 C-20.6973471 7.51624176 -18.35402607 5.6365092 -16 3 C-17.32 3 -18.64 3 -20 3 C-20 2.34 -20 1.68 -20 1 C-18.35 0.67 -16.7 0.34 -15 0 C-15 0.66 -15 1.32 -15 2 C-13.87851563 1.65775391 -13.87851563 1.65775391 -12.734375 1.30859375 C-11.74953125 1.02113281 -10.7646875 0.73367187 -9.75 0.4375 C-8.77546875 0.14746094 -7.8009375 -0.14257812 -6.796875 -0.44140625 C-4.03756068 -0.99249836 -2.6087176 -0.93789609 0 0 Z " fill="#424242" transform="translate(103,178)"/>
<path d="M0 0 C0.33 1.32 0.66 2.64 1 4 C-0.32 4 -1.64 4 -3 4 C-3.02705729 5.77074917 -3.04642195 7.54161711 -3.0625 9.3125 C-3.07410156 10.29863281 -3.08570312 11.28476563 -3.09765625 12.30078125 C-3.12329862 15.09963849 -3.12329862 15.09963849 -2 18 C-2.66 18.33 -3.32 18.66 -4 19 C-4.33 19.99 -4.66 20.98 -5 22 C-6.32 21.67 -7.64 21.34 -9 21 C-9 22.98 -9 24.96 -9 27 C-9.33 27 -9.66 27 -10 27 C-10 24.69 -10 22.38 -10 20 C-9.34 19.67 -8.68 19.34 -8 19 C-7.59270772 16.67843403 -7.25561323 14.3431213 -7 12 C-6.34 12 -5.68 12 -5 12 C-4.95101562 11.36191406 -4.90203125 10.72382812 -4.8515625 10.06640625 C-4.77679688 9.24011719 -4.70203125 8.41382812 -4.625 7.5625 C-4.55539063 6.73878906 -4.48578125 5.91507813 -4.4140625 5.06640625 C-4.20910156 4.04353516 -4.20910156 4.04353516 -4 3 C-3.34 2.67 -2.68 2.34 -2 2 C-1.34 2.33 -0.68 2.66 0 3 C0 2.01 0 1.02 0 0 Z " fill="#5F5F5F" transform="translate(122,57)"/>
<path d="M0 0 C0.99 0.33 1.98 0.66 3 1 C3 1.66 3 2.32 3 3 C3.99 3.33 4.98 3.66 6 4 C6 4.66 6 5.32 6 6 C7.98 6.66 9.96 7.32 12 8 C12 9.65 12 11.3 12 13 C9.125 12.25 9.125 12.25 6 11 C4.9375 9.1875 4.9375 9.1875 4 7 C2.37253306 5.29503463 0.71108689 3.62102968 -1 2 C-0.67 1.34 -0.34 0.68 0 0 Z " fill="#6A6A6A" transform="translate(79,141)"/>
<path d="M0 0 C2.64 1.32 5.28 2.64 8 4 C7.34 4.66 6.68 5.32 6 6 C4.44644848 5.7928598 2.89384368 5.57189194 1.3515625 5.29296875 C-3.72649818 4.66031999 -8.89111106 4.93085714 -14 5 C-11.31907309 2.31907309 -9.60832637 2.61329743 -5.875 2.375 C-4.77929688 2.30023438 -3.68359375 2.22546875 -2.5546875 2.1484375 C-1.71164063 2.09945312 -0.86859375 2.05046875 0 2 C0 1.34 0 0.68 0 0 Z " fill="#838383" transform="translate(167,186)"/>
<path d="M0 0 C1.33333333 1.33333333 2.66666667 2.66666667 4 4 C5.11375 5.051875 5.11375 5.051875 6.25 6.125 C8 8 8 8 8 10 C7.01 10.495 7.01 10.495 6 11 C5.67 11.99 5.34 12.98 5 14 C4.15675328 12.421924 3.32576082 10.8372958 2.5 9.25 C2.0359375 8.36828125 1.571875 7.4865625 1.09375 6.578125 C0 4 0 4 0 0 Z " fill="#707070" transform="translate(55,78)"/>
<path d="M0 0 C1.07156762 4.28627048 1.0365854 4.66075382 -0.9375 8.25 C-1.31777344 8.95640625 -1.69804687 9.6628125 -2.08984375 10.390625 C-2.39019531 10.92171875 -2.69054687 11.4528125 -3 12 C-4.32 11.01 -5.64 10.02 -7 9 C-4.69 6.03 -2.38 3.06 0 0 Z " fill="#787878" transform="translate(194,78)"/>
<path d="M0 0 C0.99 0.33 1.98 0.66 3 1 C0.45454545 8.81818182 0.45454545 8.81818182 -1 12 C-1.99 12.495 -1.99 12.495 -3 13 C-2.45144652 8.428721 -1.58255197 4.32564205 0 0 Z " fill="#666666" transform="translate(184,108)"/>
<path d="M0 0 C0 0.66 0 1.32 0 2 C0.928125 2.103125 1.85625 2.20625 2.8125 2.3125 C6.03254358 3.0070192 7.02579865 3.47740939 9 6 C7.02 6 5.04 6 3 6 C3 5.67 3 5.34 3 5 C1.6696875 4.566875 1.6696875 4.566875 0.3125 4.125 C-2.50382424 3.16851252 -5.25083156 2.13201054 -8 1 C-8 0.67 -8 0.34 -8 0 C-4.71303767 -0.79953138 -3.28976808 -1.09658936 0 0 Z " fill="#919191" transform="translate(69,174)"/>
<path d="M0 0 C1.32 1.32 2.64 2.64 4 4 C4.99 3.67 5.98 3.34 7 3 C8.1577506 6.47325181 8.06866652 9.36067448 8 13 C6 12 6 12 4.5625 9 C3.29136173 5.71082942 3.29136173 5.71082942 0 5 C0 3.35 0 1.7 0 0 Z " fill="#9B9B9B" transform="translate(102,124)"/>
<path d="M0 0 C5.23880078 0.55145271 9.97350697 1.42922093 15 3 C15.33 2.34 15.66 1.68 16 1 C16 1.99 16 2.98 16 4 C12.51799235 5.20655614 10.35462394 4.78332187 6.875 3.6875 C6.00617188 3.42324219 5.13734375 3.15898437 4.2421875 2.88671875 C2 2 2 2 0 0 Z " fill="#A2A2A2" transform="translate(147,177)"/>
<path d="M0 0 C0.99 0.99 1.98 1.98 3 3 C1.87952194 6.36143418 0.50292817 7.57528834 -2 10 C-2.33 10.66 -2.66 11.32 -3 12 C-3.66 11.67 -4.32 11.34 -5 11 C-4.67 10.34 -4.34 9.68 -4 9 C-4.66 8.67 -5.32 8.34 -6 8 C-5.01 7.34 -4.02 6.68 -3 6 C-0.8614515 3.8614515 -0.57344937 2.86724686 0 0 Z " fill="#787878" transform="translate(168,140)"/>
<path d="M0 0 C0.99 0.33 1.98 0.66 3 1 C2.65120368 4.25543229 1.97866739 5.01873107 -0.5625 7.25 C-1.7690625 8.11625 -1.7690625 8.11625 -3 9 C-3.75 7.3125 -3.75 7.3125 -4 5 C-2.0625 2.25 -2.0625 2.25 0 0 Z " fill="#5B5B5B" transform="translate(179,121)"/>
<path d="M0 0 C3.3 0 6.6 0 10 0 C4.8393283 2.58033585 1.50278693 3.12503029 -4.25 3.0625 C-5.32765625 3.05347656 -6.4053125 3.04445312 -7.515625 3.03515625 C-8.33546875 3.02355469 -9.1553125 3.01195312 -10 3 C-10 2.67 -10 2.34 -10 2 C-6.7 2 -3.4 2 0 2 C0 1.34 0 0.68 0 0 Z " fill="#A4A4A4" transform="translate(53,157)"/>
<path d="M0 0 C3.33537489 1.11179163 4.63707344 2.47411298 7 5 C6.67 5.66 6.34 6.32 6 7 C5.401875 6.835 4.80375 6.67 4.1875 6.5 C1.88655664 5.8885876 1.88655664 5.8885876 -1 6 C-1.042721 4.33388095 -1.04063832 2.66617115 -1 1 C-0.67 0.67 -0.34 0.34 0 0 Z " fill="#5E5E5E" transform="translate(95,116)"/>
<path d="M0 0 C3.96 0 7.92 0 12 0 C11.01 0.33 10.02 0.66 9 1 C9 1.66 9 2.32 9 3 C6 3 3 3 0 3 C0 2.01 0 1.02 0 0 Z " fill="#6F6F6F" transform="translate(65,157)"/>
<path d="M0 0 C2.31 0 4.62 0 7 0 C7 1.65 7 3.3 7 5 C4.0625 4.1875 4.0625 4.1875 1 3 C0.67 2.01 0.34 1.02 0 0 Z " fill="#494949" transform="translate(84,149)"/>
<path d="M0 0 C0.66 0.66 1.32 1.32 2 2 C-0.33333333 4.33333333 -2.66666667 6.66666667 -5 9 C-5 6.36 -5 3.72 -5 1 C-2.625 0.375 -2.625 0.375 0 0 Z " fill="#9C9C9C" transform="translate(145,127)"/>
<path d="M0 0 C1 3 1 3 0.0625 5.1875 C-0.4634375 6.0846875 -0.4634375 6.0846875 -1 7 C-1.61875 6.814375 -2.2375 6.62875 -2.875 6.4375 C-5.04160178 5.76313824 -5.04160178 5.76313824 -7 7 C-5.96858962 4.42147406 -5.38518655 3.22177407 -2.9375 1.8125 C-2.298125 1.544375 -1.65875 1.27625 -1 1 C-0.67 0.67 -0.34 0.34 0 0 Z " fill="#5A5A5A" transform="translate(178,92)"/>
<path d="M0 0 C1.32 0 2.64 0 4 0 C4 2.31 4 4.62 4 7 C1 6 1 6 -0.25 4.0625 C-0.4975 3.381875 -0.745 2.70125 -1 2 C-0.67 1.34 -0.34 0.68 0 0 Z " fill="#474747" transform="translate(72,128)"/>
<path d="M0 0 C0.99 0.33 1.98 0.66 3 1 C3.33 1.99 3.66 2.98 4 4 C3.01 5.485 3.01 5.485 2 7 C0.68 5.35 -0.64 3.7 -2 2 C-1.34 1.34 -0.68 0.68 0 0 Z " fill="#6F6F6F" transform="translate(69,121)"/>
<path d="M0 0 C0.66 0 1.32 0 2 0 C2.99 2.64 3.98 5.28 5 8 C3.68 7.67 2.36 7.34 1 7 C-0.3125 4.5625 -0.3125 4.5625 -1 2 C-0.67 1.34 -0.34 0.68 0 0 Z " fill="#848484" transform="translate(63,107)"/>
<path d="M0 0 C0.66 0.33 1.32 0.66 2 1 C1.34 1.66 0.68 2.32 0 3 C0.66 3.66 1.32 4.32 2 5 C-0.31 5.33 -2.62 5.66 -5 6 C-5 5.01 -5 4.02 -5 3 C-2.625 1.25 -2.625 1.25 0 0 Z " fill="#AAAAAA" transform="translate(81,186)"/>
<path d="M0 0 C2.64 0.33 5.28 0.66 8 1 C6.3125 2.5625 6.3125 2.5625 4 4 C1.25 3.6875 1.25 3.6875 -1 3 C-0.67 2.01 -0.34 1.02 0 0 Z " fill="#656565" transform="translate(181,173)"/>
<path d="M0 0 C0.99 0.33 1.98 0.66 3 1 C3 3 3 3 0.5 5.625 C-0.325 6.40875 -1.15 7.1925 -2 8 C-2.99 7.67 -3.98 7.34 -5 7 C-4.34 6.67 -3.68 6.34 -3 6 C-1.95191959 4.02477154 -0.9479589 2.02518491 0 0 Z " fill="#767676" transform="translate(158,109)"/>
<path d="M0 0 C3.3 0.33 6.6 0.66 10 1 C8.515 2.485 8.515 2.485 7 4 C4.3125 3.6875 4.3125 3.6875 2 3 C2 2.34 2 1.68 2 1 C1.34 0.67 0.68 0.34 0 0 Z " fill="#787878" transform="translate(33,159)"/>
<path d="M0 0 C2.0625 1.75 2.0625 1.75 4 4 C3.75 6.25 3.75 6.25 3 8 C3 7.01 3 6.02 3 5 C1.68 4.67 0.36 4.34 -1 4 C-0.67 2.68 -0.34 1.36 0 0 Z " fill="#5D5D5D" transform="translate(90,109)"/>
<path d="M0 0 C2 1 2 1 2 1 Z " fill="#E9E9E9" transform="translate(82,156)"/>
<path d="" fill="#ECECEC" transform="translate(0,0)"/>
<path d="" fill="#EEEEEE" transform="translate(0,0)"/>
<path d="" fill="#EEEEEE" transform="translate(0,0)"/>
<path d="" fill="#E6E6E6" transform="translate(0,0)"/>
<path d="" fill="#E1E1E1" transform="translate(0,0)"/>
<path d="" fill="#EAEAEA" transform="translate(0,0)"/>
<path d="" fill="#EBEBEB" transform="translate(0,0)"/>
<path d="" fill="#E7E7E7" transform="translate(0,0)"/>
<path d="" fill="#EEEEEE" transform="translate(0,0)"/>
<path d="" fill="#EAEAEA" transform="translate(0,0)"/>
<path d="" fill="#E6E6E6" transform="translate(0,0)"/>
<path d="" fill="#ECECEC" transform="translate(0,0)"/>
<path d="" fill="#E9E9E9" transform="translate(0,0)"/>
<path d="" fill="#EDEDED" transform="translate(0,0)"/>
<path d="" fill="#ECECEC" transform="translate(0,0)"/>
<path d="" fill="#E7E7E7" transform="translate(0,0)"/>
<path d="" fill="#E6E6E6" transform="translate(0,0)"/>
<path d="" fill="#E7E7E7" transform="translate(0,0)"/>
<path d="" fill="#DFDFDF" transform="translate(0,0)"/>
<path d="" fill="#E2E2E2" transform="translate(0,0)"/>
<path d="" fill="#E7E7E7" transform="translate(0,0)"/>
<path d="" fill="#EAEAEA" transform="translate(0,0)"/>
<path d="" fill="#EBEBEB" transform="translate(0,0)"/>
<path d="" fill="#EEEEEE" transform="translate(0,0)"/>
<path d="" fill="#EDEDED" transform="translate(0,0)"/>
<path d="" fill="#ECECEC" transform="translate(0,0)"/>
<path d="" fill="#EDEDED" transform="translate(0,0)"/>
<path d="" fill="#ECECEC" transform="translate(0,0)"/>
<path d="" fill="#E7E7E7" transform="translate(0,0)"/>
<path d="" fill="#E8E8E8" transform="translate(0,0)"/>
<path d="" fill="#E9E9E9" transform="translate(0,0)"/>
<path d="" fill="#E5E5E5" transform="translate(0,0)"/>
<path d="" fill="#E9E9E9" transform="translate(0,0)"/>
<path d="" fill="#EEEEEE" transform="translate(0,0)"/>
<path d="" fill="#EDEDED" transform="translate(0,0)"/>
<path d="" fill="#EBEBEB" transform="translate(0,0)"/>
<path d="" fill="#EEEEEE" transform="translate(0,0)"/>
<path d="" fill="#EAEAEA" transform="translate(0,0)"/>
<path d="" fill="#E9E9E9" transform="translate(0,0)"/>
<path d="" fill="#ECECEC" transform="translate(0,0)"/>
<path d="" fill="#EBEBEB" transform="translate(0,0)"/>
<path d="" fill="#EAEAEA" transform="translate(0,0)"/>
<path d="" fill="#E9E9E9" transform="translate(0,0)"/>
</svg>
